<svg width="32" height="33" viewBox="0 0 32 33" fill="none" xmlns="http://www.w3.org/2000/svg">
<path d="M30.0014 16.6942C30.0014 15.5431 29.9061 14.7031 29.6998 13.832H16.2871V19.0275H24.1601C24.0014 20.3187 23.1442 22.2631 21.2394 23.5697L21.2127 23.7437L25.4536 26.9633L25.7474 26.992C28.4458 24.5498 30.0014 20.9564 30.0014 16.6942Z" fill="#4285F4"/>
<path d="M16.2863 30.3835C20.1434 30.3835 23.3814 29.139 25.7466 26.9924L21.2386 23.57C20.0323 24.3945 18.4132 24.97 16.2863 24.97C12.5086 24.97 9.30225 22.5279 8.15929 19.1523L7.99176 19.1662L3.58208 22.5107L3.52441 22.6678C5.87359 27.2412 10.699 30.3835 16.2863 30.3835Z" fill="#34A853"/>
<path d="M8.16013 19.1523C7.85855 18.2812 7.68401 17.3478 7.68401 16.3834C7.68401 15.4189 7.85856 14.4856 8.14427 13.6145L8.13627 13.4289L3.67132 10.0308L3.52524 10.0989C2.55703 11.9967 2.00146 14.1278 2.00146 16.3834C2.00146 18.6389 2.55703 20.77 3.52524 22.6678L8.16013 19.1523Z" fill="#FBBC05"/>
<path d="M16.2864 7.7966C18.9689 7.7966 20.7784 8.93215 21.8102 9.8811L25.8419 6.0233C23.3658 3.76775 20.1435 2.3833 16.2864 2.3833C10.699 2.3833 5.8736 5.5255 3.52441 10.0988L8.14345 13.6144C9.30229 10.2389 12.5086 7.7966 16.2864 7.7966Z" fill="#EB4335"/>
</svg>
