<svg width="239" height="65" viewBox="0 0 239 65" fill="none" xmlns="http://www.w3.org/2000/svg">
<path d="M55.8057 6.38586C56.8562 5.85718 58.0473 5.67454 59.209 5.86536C60.3708 6.05626 61.4403 6.61026 62.2666 7.44446L62.2656 7.44543C63.3827 8.56769 64.3816 10.5736 65.1387 14.172C65.9141 17.8576 66.5078 23.5683 66.5078 32.5001C66.5078 40.5527 63.3225 47.3446 57.5977 52.0685C51.93 56.7452 44.0112 59.2081 34.7715 59.2081H34.7637C34.0171 59.2062 33.2789 59.0527 32.5938 58.7579V58.756C31.766 58.4016 31.0785 57.7881 30.6016 57.3048C30.0579 56.754 29.5032 56.0773 28.9609 55.3253C28.3761 54.5143 27.776 53.5695 27.1904 52.5216C27.1272 52.8197 27.0409 53.1133 26.9297 53.3986C26.6608 54.0879 26.2584 54.7182 25.7441 55.2521C25.2296 55.7861 24.6131 56.2132 23.9307 56.507C23.2483 56.8007 22.514 56.9548 21.7705 56.9601C21.0703 56.965 20.3765 56.8362 19.7246 56.5841C14.7736 54.8463 10.497 51.5786 7.50195 47.2501C4.51049 42.9267 2.94956 37.7651 3.03613 32.5001C3.03614 23.5683 3.62884 17.8576 4.4043 14.172C5.16129 10.5742 6.15948 8.5678 7.27637 7.44543C8.10267 6.61121 9.17211 6.05627 10.334 5.86536L10.5518 5.83411C11.5712 5.70779 12.6048 5.86629 13.5391 6.29114L13.7383 6.38586L13.7402 6.38684L29.4258 14.298H29.4268C30.7566 14.966 31.7613 16.1359 32.2285 17.5421C32.4007 18.0604 32.4941 18.5963 32.5117 19.1329C34.7091 17.3524 37.2539 15.7428 40.1113 14.3009L55.8037 6.38684L55.8057 6.38586ZM55.3848 29.9103C55.1352 30.3658 54.8251 30.7869 54.458 31.1583C53.9369 31.6857 53.3158 32.1047 52.6299 32.3898C52.6161 32.3955 52.6018 32.4008 52.5879 32.4064C48.9312 33.8614 45.7917 36.3996 43.585 39.6915C41.9975 42.0597 40.9493 44.7385 40.4932 47.5363C44.8922 46.8201 48.3172 45.2708 50.7305 43.173C53.6723 40.6155 55.3408 37.0538 55.3408 32.5001C55.3408 32.4659 55.3416 32.4318 55.3428 32.3976C55.3715 31.5685 55.3836 30.7392 55.3848 29.9103ZM14.8682 19.5089C14.2751 23.7746 14.0511 28.0867 14.2012 32.3966C14.2032 32.4546 14.2035 32.5134 14.2021 32.5714C14.1314 35.5465 15.0087 38.4635 16.7021 40.8937C18.3953 43.3235 20.8133 45.1369 23.5977 46.0724C23.634 46.0846 23.6702 46.0978 23.7061 46.1115C23.9952 46.2213 24.2735 46.3557 24.5391 46.5109C23.2389 42.6123 22.4917 38.0276 23.3711 33.5167L23.5332 32.754C24.1858 29.9251 25.3704 27.3181 27.0361 24.9288C26.1388 24.9466 25.2419 24.7484 24.4248 24.338L24.418 24.3351L14.8682 19.5089ZM50.5059 21.6056C51.1089 21.6068 51.707 21.7047 52.2773 21.8976L52.5391 21.9933L52.7949 22.1017C53.3011 22.3314 53.7698 22.6353 54.1855 23.0031L54.3887 23.1925L54.582 23.3917C54.8005 23.6274 54.9965 23.8819 55.1709 24.1505C55.053 22.5974 54.8868 21.0482 54.6719 19.505L50.5059 21.6056Z" stroke="#80A867" stroke-width="5.9363" stroke-linejoin="round"/>
<mask id="path-2-outside-1_1585_615" maskUnits="userSpaceOnUse" x="82.5392" y="4" width="129" height="41" fill="black">
<rect fill="white" x="82.5392" y="4" width="129" height="41"/>
<path d="M95.4514 5.01465V7.15234H90.7141V20H88.1789V7.15234H83.4308V5.01465H95.4514ZM108.825 5.01465V7.15234H100.779V11.2021H108.331V13.3506H100.779V17.8301H109.169V20H98.2443V5.01465H108.825ZM114.895 5.01465V11.1914H121.673V5.01465H124.208V20H121.673V13.2969H114.895V20H112.36V5.01465H114.895ZM84.4299 29.0146H90.2521C91.2834 29.0146 92.2072 29.2116 93.0236 29.6055C93.8472 29.9922 94.5454 30.5257 95.1183 31.2061C95.6984 31.8792 96.1424 32.6706 96.4504 33.5801C96.7583 34.4824 96.9123 35.4492 96.9123 36.4805C96.9123 37.5547 96.7512 38.5501 96.4289 39.4668C96.1066 40.3835 95.6519 41.1784 95.0646 41.8516C94.4774 42.5247 93.7756 43.0511 92.9592 43.4307C92.1428 43.8102 91.2404 44 90.2521 44H84.4299V29.0146ZM86.965 41.8301H89.6506C90.3309 41.8301 90.9611 41.7155 91.5412 41.4863C92.1213 41.25 92.619 40.9062 93.0344 40.4551C93.4569 40.0039 93.7863 39.4489 94.0226 38.79C94.259 38.124 94.3771 37.3613 94.3771 36.502C94.3771 35.5781 94.2554 34.7796 94.0119 34.1064C93.7756 33.4333 93.4461 32.8783 93.0236 32.4414C92.6083 32.0046 92.1105 31.6823 91.5305 31.4746C90.9504 31.2598 90.3238 31.1523 89.6506 31.1523H86.965V41.8301ZM110.458 29.0146V31.1523H102.412V35.2021H109.964V37.3506H102.412V41.8301H110.802V44H99.8771V29.0146H110.458ZM118.977 40.1221L122.672 29.0146H125.358L120.32 44H117.634L112.531 29.0146H115.228L118.977 40.1221ZM138.259 29.0146V31.1523H130.213V35.2021H137.765V37.3506H130.213V41.8301H138.603V44H127.678V29.0146H138.259ZM144.328 29.0146V41.8301H151.536V44H141.793V29.0146H144.328ZM167.295 36.4697C167.295 37.6299 167.141 38.6969 166.833 39.6709C166.525 40.6377 166.074 41.472 165.48 42.1738C164.892 42.8685 164.169 43.4092 163.31 43.7959C162.45 44.1826 161.466 44.376 160.356 44.376C159.246 44.376 158.261 44.1826 157.402 43.7959C156.549 43.402 155.826 42.8577 155.232 42.1631C154.644 41.4613 154.197 40.627 153.889 39.6602C153.588 38.6862 153.438 37.6191 153.438 36.459C153.438 35.2988 153.588 34.2389 153.889 33.2793C154.197 32.3197 154.644 31.4961 155.232 30.8086C155.826 30.1211 156.549 29.5876 157.402 29.208C158.261 28.8285 159.246 28.6387 160.356 28.6387C161.466 28.6387 162.45 28.832 163.31 29.2188C164.169 29.5983 164.892 30.1318 165.48 30.8193C166.074 31.5068 166.525 32.3304 166.833 33.29C167.141 34.2497 167.295 35.3096 167.295 36.4697ZM164.76 36.459C164.76 35.5495 164.645 34.7402 164.416 34.0312C164.187 33.3223 163.872 32.7279 163.471 32.248C163.077 31.7611 162.612 31.3923 162.074 31.1416C161.544 30.8838 160.972 30.7549 160.356 30.7549C159.733 30.7549 159.153 30.8838 158.615 31.1416C158.085 31.3923 157.624 31.7611 157.23 32.248C156.843 32.7279 156.535 33.3223 156.306 34.0312C156.084 34.7402 155.973 35.5495 155.973 36.459C155.973 37.3685 156.084 38.1813 156.306 38.8975C156.535 39.6136 156.843 40.2223 157.23 40.7236C157.624 41.2178 158.085 41.5973 158.615 41.8623C159.153 42.1201 159.733 42.249 160.356 42.249C160.972 42.249 161.544 42.1201 162.074 41.8623C162.612 41.5973 163.077 41.2178 163.471 40.7236C163.872 40.2223 164.187 39.6136 164.416 38.8975C164.645 38.1813 164.76 37.3685 164.76 36.459ZM170.281 29.0146H176.211C176.985 29.0146 177.668 29.1471 178.263 29.4121C178.857 29.6771 179.355 30.0244 179.756 30.4541C180.164 30.8766 180.472 31.3529 180.68 31.8828C180.895 32.4128 181.002 32.9463 181.002 33.4834C181.002 34.0492 180.895 34.6042 180.68 35.1484C180.472 35.6855 180.164 36.1654 179.756 36.5879C179.348 37.0033 178.847 37.3398 178.252 37.5977C177.658 37.8483 176.977 37.9736 176.211 37.9736H172.817V44H170.281V29.0146ZM172.817 35.8467H175.674C176.197 35.8467 176.634 35.7858 176.985 35.6641C177.343 35.5352 177.629 35.3633 177.844 35.1484C178.066 34.9336 178.223 34.6829 178.317 34.3965C178.417 34.1029 178.467 33.7878 178.467 33.4512C178.467 33.1217 178.406 32.8174 178.284 32.5381C178.163 32.2516 177.984 32.0081 177.747 31.8076C177.511 31.5999 177.217 31.4388 176.866 31.3242C176.523 31.2096 176.125 31.1523 175.674 31.1523H172.817V35.8467ZM194.484 29.0146V31.1523H186.438V35.2021H193.989V37.3506H186.438V41.8301H194.827V44H183.903V29.0146H194.484ZM209.211 33.4082C209.211 34.0671 209.039 34.6865 208.695 35.2666C208.359 35.8395 207.843 36.3372 207.149 36.7598C207.478 36.8743 207.761 37.0391 207.997 37.2539C208.234 37.4688 208.427 37.7122 208.577 37.9844C208.728 38.2493 208.839 38.5358 208.91 38.8438C208.982 39.1445 209.018 39.4453 209.018 39.7461V41.916C209.018 42.1882 209.082 42.5068 209.211 42.8721C209.347 43.2373 209.53 43.6133 209.759 44H206.987C206.88 43.8281 206.791 43.6491 206.719 43.4629C206.654 43.2767 206.604 43.0941 206.569 42.915C206.54 42.736 206.518 42.5677 206.504 42.4102C206.497 42.2526 206.493 42.113 206.493 41.9912V39.7139C206.493 39.4919 206.454 39.2699 206.375 39.0479C206.304 38.8258 206.185 38.6289 206.021 38.457C205.856 38.278 205.638 38.1348 205.365 38.0273C205.093 37.9128 204.764 37.8555 204.377 37.8555H200.553V44H198.018V29.0146H204.377C205.151 29.0146 205.838 29.1436 206.44 29.4014C207.041 29.6592 207.546 29.9958 207.954 30.4111C208.37 30.8265 208.681 31.2956 208.889 31.8184C209.104 32.3411 209.211 32.8711 209.211 33.4082ZM200.553 35.7285H204.377C204.685 35.7285 204.975 35.6748 205.247 35.5674C205.527 35.4528 205.77 35.2988 205.978 35.1055C206.193 34.9049 206.361 34.665 206.483 34.3857C206.604 34.1064 206.665 33.7985 206.665 33.4619C206.665 33.1325 206.608 32.8281 206.493 32.5488C206.379 32.2624 206.218 32.0189 206.01 31.8184C205.809 31.6107 205.57 31.4495 205.29 31.335C205.011 31.2132 204.707 31.1523 204.377 31.1523H200.553V35.7285Z"/>
</mask>
<path d="M95.4514 5.01465V7.15234H90.7141V20H88.1789V7.15234H83.4308V5.01465H95.4514ZM108.825 5.01465V7.15234H100.779V11.2021H108.331V13.3506H100.779V17.8301H109.169V20H98.2443V5.01465H108.825ZM114.895 5.01465V11.1914H121.673V5.01465H124.208V20H121.673V13.2969H114.895V20H112.36V5.01465H114.895ZM84.4299 29.0146H90.2521C91.2834 29.0146 92.2072 29.2116 93.0236 29.6055C93.8472 29.9922 94.5454 30.5257 95.1183 31.2061C95.6984 31.8792 96.1424 32.6706 96.4504 33.5801C96.7583 34.4824 96.9123 35.4492 96.9123 36.4805C96.9123 37.5547 96.7512 38.5501 96.4289 39.4668C96.1066 40.3835 95.6519 41.1784 95.0646 41.8516C94.4774 42.5247 93.7756 43.0511 92.9592 43.4307C92.1428 43.8102 91.2404 44 90.2521 44H84.4299V29.0146ZM86.965 41.8301H89.6506C90.3309 41.8301 90.9611 41.7155 91.5412 41.4863C92.1213 41.25 92.619 40.9062 93.0344 40.4551C93.4569 40.0039 93.7863 39.4489 94.0226 38.79C94.259 38.124 94.3771 37.3613 94.3771 36.502C94.3771 35.5781 94.2554 34.7796 94.0119 34.1064C93.7756 33.4333 93.4461 32.8783 93.0236 32.4414C92.6083 32.0046 92.1105 31.6823 91.5305 31.4746C90.9504 31.2598 90.3238 31.1523 89.6506 31.1523H86.965V41.8301ZM110.458 29.0146V31.1523H102.412V35.2021H109.964V37.3506H102.412V41.8301H110.802V44H99.8771V29.0146H110.458ZM118.977 40.1221L122.672 29.0146H125.358L120.32 44H117.634L112.531 29.0146H115.228L118.977 40.1221ZM138.259 29.0146V31.1523H130.213V35.2021H137.765V37.3506H130.213V41.8301H138.603V44H127.678V29.0146H138.259ZM144.328 29.0146V41.8301H151.536V44H141.793V29.0146H144.328ZM167.295 36.4697C167.295 37.6299 167.141 38.6969 166.833 39.6709C166.525 40.6377 166.074 41.472 165.48 42.1738C164.892 42.8685 164.169 43.4092 163.31 43.7959C162.45 44.1826 161.466 44.376 160.356 44.376C159.246 44.376 158.261 44.1826 157.402 43.7959C156.549 43.402 155.826 42.8577 155.232 42.1631C154.644 41.4613 154.197 40.627 153.889 39.6602C153.588 38.6862 153.438 37.6191 153.438 36.459C153.438 35.2988 153.588 34.2389 153.889 33.2793C154.197 32.3197 154.644 31.4961 155.232 30.8086C155.826 30.1211 156.549 29.5876 157.402 29.208C158.261 28.8285 159.246 28.6387 160.356 28.6387C161.466 28.6387 162.45 28.832 163.31 29.2188C164.169 29.5983 164.892 30.1318 165.48 30.8193C166.074 31.5068 166.525 32.3304 166.833 33.29C167.141 34.2497 167.295 35.3096 167.295 36.4697ZM164.76 36.459C164.76 35.5495 164.645 34.7402 164.416 34.0312C164.187 33.3223 163.872 32.7279 163.471 32.248C163.077 31.7611 162.612 31.3923 162.074 31.1416C161.544 30.8838 160.972 30.7549 160.356 30.7549C159.733 30.7549 159.153 30.8838 158.615 31.1416C158.085 31.3923 157.624 31.7611 157.23 32.248C156.843 32.7279 156.535 33.3223 156.306 34.0312C156.084 34.7402 155.973 35.5495 155.973 36.459C155.973 37.3685 156.084 38.1813 156.306 38.8975C156.535 39.6136 156.843 40.2223 157.23 40.7236C157.624 41.2178 158.085 41.5973 158.615 41.8623C159.153 42.1201 159.733 42.249 160.356 42.249C160.972 42.249 161.544 42.1201 162.074 41.8623C162.612 41.5973 163.077 41.2178 163.471 40.7236C163.872 40.2223 164.187 39.6136 164.416 38.8975C164.645 38.1813 164.76 37.3685 164.76 36.459ZM170.281 29.0146H176.211C176.985 29.0146 177.668 29.1471 178.263 29.4121C178.857 29.6771 179.355 30.0244 179.756 30.4541C180.164 30.8766 180.472 31.3529 180.68 31.8828C180.895 32.4128 181.002 32.9463 181.002 33.4834C181.002 34.0492 180.895 34.6042 180.68 35.1484C180.472 35.6855 180.164 36.1654 179.756 36.5879C179.348 37.0033 178.847 37.3398 178.252 37.5977C177.658 37.8483 176.977 37.9736 176.211 37.9736H172.817V44H170.281V29.0146ZM172.817 35.8467H175.674C176.197 35.8467 176.634 35.7858 176.985 35.6641C177.343 35.5352 177.629 35.3633 177.844 35.1484C178.066 34.9336 178.223 34.6829 178.317 34.3965C178.417 34.1029 178.467 33.7878 178.467 33.4512C178.467 33.1217 178.406 32.8174 178.284 32.5381C178.163 32.2516 177.984 32.0081 177.747 31.8076C177.511 31.5999 177.217 31.4388 176.866 31.3242C176.523 31.2096 176.125 31.1523 175.674 31.1523H172.817V35.8467ZM194.484 29.0146V31.1523H186.438V35.2021H193.989V37.3506H186.438V41.8301H194.827V44H183.903V29.0146H194.484ZM209.211 33.4082C209.211 34.0671 209.039 34.6865 208.695 35.2666C208.359 35.8395 207.843 36.3372 207.149 36.7598C207.478 36.8743 207.761 37.0391 207.997 37.2539C208.234 37.4688 208.427 37.7122 208.577 37.9844C208.728 38.2493 208.839 38.5358 208.91 38.8438C208.982 39.1445 209.018 39.4453 209.018 39.7461V41.916C209.018 42.1882 209.082 42.5068 209.211 42.8721C209.347 43.2373 209.53 43.6133 209.759 44H206.987C206.88 43.8281 206.791 43.6491 206.719 43.4629C206.654 43.2767 206.604 43.0941 206.569 42.915C206.54 42.736 206.518 42.5677 206.504 42.4102C206.497 42.2526 206.493 42.113 206.493 41.9912V39.7139C206.493 39.4919 206.454 39.2699 206.375 39.0479C206.304 38.8258 206.185 38.6289 206.021 38.457C205.856 38.278 205.638 38.1348 205.365 38.0273C205.093 37.9128 204.764 37.8555 204.377 37.8555H200.553V44H198.018V29.0146H204.377C205.151 29.0146 205.838 29.1436 206.44 29.4014C207.041 29.6592 207.546 29.9958 207.954 30.4111C208.37 30.8265 208.681 31.2956 208.889 31.8184C209.104 32.3411 209.211 32.8711 209.211 33.4082ZM200.553 35.7285H204.377C204.685 35.7285 204.975 35.6748 205.247 35.5674C205.527 35.4528 205.77 35.2988 205.978 35.1055C206.193 34.9049 206.361 34.665 206.483 34.3857C206.604 34.1064 206.665 33.7985 206.665 33.4619C206.665 33.1325 206.608 32.8281 206.493 32.5488C206.379 32.2624 206.218 32.0189 206.01 31.8184C205.809 31.6107 205.57 31.4495 205.29 31.335C205.011 31.2132 204.707 31.1523 204.377 31.1523H200.553V35.7285Z" fill="#363636"/>
<path d="M95.4514 5.01465H96.0514V4.41465H95.4514V5.01465ZM95.4514 7.15234V7.75234H96.0514V7.15234H95.4514ZM90.7141 7.15234V6.55234H90.1141V7.15234H90.7141ZM90.7141 20V20.6H91.3141V20H90.7141ZM88.1789 20H87.5789V20.6H88.1789V20ZM88.1789 7.15234H88.7789V6.55234H88.1789V7.15234ZM83.4308 7.15234H82.8308V7.75234H83.4308V7.15234ZM83.4308 5.01465V4.41465H82.8308V5.01465H83.4308ZM95.4514 5.01465H94.8514V7.15234H95.4514H96.0514V5.01465H95.4514ZM95.4514 7.15234V6.55234H90.7141V7.15234V7.75234H95.4514V7.15234ZM90.7141 7.15234H90.1141V20H90.7141H91.3141V7.15234H90.7141ZM90.7141 20V19.4H88.1789V20V20.6H90.7141V20ZM88.1789 20H88.7789V7.15234H88.1789H87.5789V20H88.1789ZM88.1789 7.15234V6.55234H83.4308V7.15234V7.75234H88.1789V7.15234ZM83.4308 7.15234H84.0308V5.01465H83.4308H82.8308V7.15234H83.4308ZM83.4308 5.01465V5.61465H95.4514V5.01465V4.41465H83.4308V5.01465ZM108.825 5.01465H109.425V4.41465H108.825V5.01465ZM108.825 7.15234V7.75234H109.425V7.15234H108.825ZM100.779 7.15234V6.55234H100.179V7.15234H100.779ZM100.779 11.2021H100.179V11.8021H100.779V11.2021ZM108.331 11.2021H108.931V10.6021H108.331V11.2021ZM108.331 13.3506V13.9506H108.931V13.3506H108.331ZM100.779 13.3506V12.7506H100.179V13.3506H100.779ZM100.779 17.8301H100.179V18.4301H100.779V17.8301ZM109.169 17.8301H109.769V17.2301H109.169V17.8301ZM109.169 20V20.6H109.769V20H109.169ZM98.2443 20H97.6443V20.6H98.2443V20ZM98.2443 5.01465V4.41465H97.6443V5.01465H98.2443ZM108.825 5.01465H108.225V7.15234H108.825H109.425V5.01465H108.825ZM108.825 7.15234V6.55234H100.779V7.15234V7.75234H108.825V7.15234ZM100.779 7.15234H100.179V11.2021H100.779H101.379V7.15234H100.779ZM100.779 11.2021V11.8021H108.331V11.2021V10.6021H100.779V11.2021ZM108.331 11.2021H107.731V13.3506H108.331H108.931V11.2021H108.331ZM108.331 13.3506V12.7506H100.779V13.3506V13.9506H108.331V13.3506ZM100.779 13.3506H100.179V17.8301H100.779H101.379V13.3506H100.779ZM100.779 17.8301V18.4301H109.169V17.8301V17.2301H100.779V17.8301ZM109.169 17.8301H108.569V20H109.169H109.769V17.8301H109.169ZM109.169 20V19.4H98.2443V20V20.6H109.169V20ZM98.2443 20H98.8443V5.01465H98.2443H97.6443V20H98.2443ZM98.2443 5.01465V5.61465H108.825V5.01465V4.41465H98.2443V5.01465ZM114.895 5.01465H115.495V4.41465H114.895V5.01465ZM114.895 11.1914H114.295V11.7914H114.895V11.1914ZM121.673 11.1914V11.7914H122.273V11.1914H121.673ZM121.673 5.01465V4.41465H121.073V5.01465H121.673ZM124.208 5.01465H124.808V4.41465H124.208V5.01465ZM124.208 20V20.6H124.808V20H124.208ZM121.673 20H121.073V20.6H121.673V20ZM121.673 13.2969H122.273V12.6969H121.673V13.2969ZM114.895 13.2969V12.6969H114.295V13.2969H114.895ZM114.895 20V20.6H115.495V20H114.895ZM112.36 20H111.76V20.6H112.36V20ZM112.36 5.01465V4.41465H111.76V5.01465H112.36ZM114.895 5.01465H114.295V11.1914H114.895H115.495V5.01465H114.895ZM114.895 11.1914V11.7914H121.673V11.1914V10.5914H114.895V11.1914ZM121.673 11.1914H122.273V5.01465H121.673H121.073V11.1914H121.673ZM121.673 5.01465V5.61465H124.208V5.01465V4.41465H121.673V5.01465ZM124.208 5.01465H123.608V20H124.208H124.808V5.01465H124.208ZM124.208 20V19.4H121.673V20V20.6H124.208V20ZM121.673 20H122.273V13.2969H121.673H121.073V20H121.673ZM121.673 13.2969V12.6969H114.895V13.2969V13.8969H121.673V13.2969ZM114.895 13.2969H114.295V20H114.895H115.495V13.2969H114.895ZM114.895 20V19.4H112.36V20V20.6H114.895V20ZM112.36 20H112.96V5.01465H112.36H111.76V20H112.36ZM112.36 5.01465V5.61465H114.895V5.01465V4.41465H112.36V5.01465ZM84.4299 29.0146V28.4146H83.8299V29.0146H84.4299ZM93.0236 29.6055L92.7629 30.1459L92.7686 30.1486L93.0236 29.6055ZM95.1183 31.2061L94.6594 31.5926L94.6638 31.5977L95.1183 31.2061ZM96.4504 33.5801L95.8821 33.7725L95.8825 33.7739L96.4504 33.5801ZM84.4299 44H83.8299V44.6H84.4299V44ZM86.965 41.8301H86.365V42.4301H86.965V41.8301ZM91.5412 41.4863L91.7617 42.0444L91.7676 42.042L91.5412 41.4863ZM93.0344 40.4551L92.5964 40.0449L92.5929 40.0487L93.0344 40.4551ZM94.0226 38.79L94.5874 38.9926L94.5881 38.9907L94.0226 38.79ZM94.0119 34.1064L93.4457 34.3052L93.4477 34.3105L94.0119 34.1064ZM93.0236 32.4414L92.5888 32.8549L92.5923 32.8585L93.0236 32.4414ZM91.5305 31.4746L91.3221 32.0373L91.3282 32.0395L91.5305 31.4746ZM86.965 31.1523V30.5523H86.365V31.1523H86.965ZM84.4299 29.0146V29.6146H90.2521V29.0146V28.4146H84.4299V29.0146ZM90.2521 29.0146V29.6146C91.2056 29.6146 92.0383 29.7963 92.7629 30.1459L93.0236 29.6055L93.2843 29.0651C92.3761 28.6269 91.3612 28.4146 90.2521 28.4146V29.0146ZM93.0236 29.6055L92.7686 30.1486C93.5155 30.4993 94.1436 30.9801 94.6594 31.5925L95.1183 31.2061L95.5773 30.8196C94.9472 30.0714 94.1789 29.4851 93.2786 29.0624L93.0236 29.6055ZM95.1183 31.2061L94.6638 31.5977C95.1896 32.2079 95.5969 32.9302 95.8821 33.7725L96.4504 33.5801L97.0187 33.3877C96.688 32.411 96.2073 31.5506 95.5729 30.8144L95.1183 31.2061ZM96.4504 33.5801L95.8825 33.7739C96.1675 34.6089 96.3123 35.5098 96.3123 36.4805H96.9123H97.5123C97.5123 35.3887 97.3491 34.3559 97.0182 33.3863L96.4504 33.5801ZM96.9123 36.4805H96.3123C96.3123 37.494 96.1604 38.4215 95.8629 39.2678L96.4289 39.4668L96.9949 39.6658C97.3419 38.6788 97.5123 37.6153 97.5123 36.4805H96.9123ZM96.4289 39.4668L95.8629 39.2678C95.5636 40.119 95.1455 40.8461 94.6125 41.4571L95.0646 41.8516L95.5168 42.246C96.1583 41.5106 96.6497 40.6479 96.9949 39.6658L96.4289 39.4668ZM95.0646 41.8516L94.6125 41.4571C94.0809 42.0665 93.4471 42.5421 92.7062 42.8866L92.9592 43.4307L93.2121 43.9747C94.104 43.5601 94.8739 42.9829 95.5168 42.246L95.0646 41.8516ZM92.9592 43.4307L92.7062 42.8866C91.9765 43.2258 91.1617 43.4 90.2521 43.4V44V44.6C91.3192 44.6 92.309 44.3946 93.2121 43.9747L92.9592 43.4307ZM90.2521 44V43.4H84.4299V44V44.6H90.2521V44ZM84.4299 44H85.0299V29.0146H84.4299H83.8299V44H84.4299ZM86.965 41.8301V42.4301H89.6506V41.8301V41.2301H86.965V41.8301ZM89.6506 41.8301V42.4301C90.3995 42.4301 91.1053 42.3037 91.7617 42.0444L91.5412 41.4863L91.3207 40.9283C90.817 41.1273 90.2623 41.2301 89.6506 41.2301V41.8301ZM91.5412 41.4863L91.7676 42.042C92.4276 41.7731 92.9993 41.379 93.4758 40.8615L93.0344 40.4551L92.5929 40.0487C92.2387 40.4335 91.8149 40.7269 91.3148 40.9307L91.5412 41.4863ZM93.0344 40.4551L93.4723 40.8652C93.9578 40.3468 94.3271 39.7184 94.5874 38.9926L94.0226 38.79L93.4579 38.5875C93.2456 39.1794 92.956 39.661 92.5964 40.0449L93.0344 40.4551ZM94.0226 38.79L94.5881 38.9907C94.8516 38.248 94.9771 37.4154 94.9771 36.502H94.3771H93.7771C93.7771 37.3073 93.6663 38 93.4572 38.5894L94.0226 38.79ZM94.3771 36.502H94.9771C94.9771 35.5277 94.849 34.6569 94.5761 33.9024L94.0119 34.1064L93.4477 34.3105C93.6617 34.9024 93.7771 35.6285 93.7771 36.502H94.3771ZM94.0119 34.1064L94.578 33.9077C94.318 33.1669 93.9472 32.5332 93.4549 32.0243L93.0236 32.4414L92.5923 32.8585C92.9451 33.2233 93.2332 33.6996 93.4458 34.3052L94.0119 34.1064ZM93.0236 32.4414L93.4584 32.028C92.977 31.5216 92.3991 31.1483 91.7327 30.9097L91.5305 31.4746L91.3282 32.0395C91.822 32.2163 92.2395 32.4875 92.5888 32.8548L93.0236 32.4414ZM91.5305 31.4746L91.7388 30.912C91.0864 30.6703 90.3886 30.5523 89.6506 30.5523V31.1523V31.7523C90.2589 31.7523 90.8143 31.8492 91.3221 32.0373L91.5305 31.4746ZM89.6506 31.1523V30.5523H86.965V31.1523V31.7523H89.6506V31.1523ZM86.965 31.1523H86.365V41.8301H86.965H87.565V31.1523H86.965ZM110.458 29.0146H111.058V28.4146H110.458V29.0146ZM110.458 31.1523V31.7523H111.058V31.1523H110.458ZM102.412 31.1523V30.5523H101.812V31.1523H102.412ZM102.412 35.2021H101.812V35.8021H102.412V35.2021ZM109.964 35.2021H110.564V34.6021H109.964V35.2021ZM109.964 37.3506V37.9506H110.564V37.3506H109.964ZM102.412 37.3506V36.7506H101.812V37.3506H102.412ZM102.412 41.8301H101.812V42.4301H102.412V41.8301ZM110.802 41.8301H111.402V41.2301H110.802V41.8301ZM110.802 44V44.6H111.402V44H110.802ZM99.8771 44H99.2771V44.6H99.8771V44ZM99.8771 29.0146V28.4146H99.2771V29.0146H99.8771ZM110.458 29.0146H109.858V31.1523H110.458H111.058V29.0146H110.458ZM110.458 31.1523V30.5523H102.412V31.1523V31.7523H110.458V31.1523ZM102.412 31.1523H101.812V35.2021H102.412H103.012V31.1523H102.412ZM102.412 35.2021V35.8021H109.964V35.2021V34.6021H102.412V35.2021ZM109.964 35.2021H109.364V37.3506H109.964H110.564V35.2021H109.964ZM109.964 37.3506V36.7506H102.412V37.3506V37.9506H109.964V37.3506ZM102.412 37.3506H101.812V41.8301H102.412H103.012V37.3506H102.412ZM102.412 41.8301V42.4301H110.802V41.8301V41.2301H102.412V41.8301ZM110.802 41.8301H110.202V44H110.802H111.402V41.8301H110.802ZM110.802 44V43.4H99.8771V44V44.6H110.802V44ZM99.8771 44H100.477V29.0146H99.8771H99.2771V44H99.8771ZM99.8771 29.0146V29.6146H110.458V29.0146V28.4146H99.8771V29.0146ZM118.977 40.1221L118.408 40.3139L118.981 42.0104L119.546 40.3115L118.977 40.1221ZM122.672 29.0146V28.4146H122.239L122.103 28.8252L122.672 29.0146ZM125.358 29.0146L125.926 29.2059L126.192 28.4146H125.358V29.0146ZM120.32 44V44.6H120.751L120.888 44.1912L120.32 44ZM117.634 44L117.066 44.1934L117.204 44.6H117.634V44ZM112.531 29.0146V28.4146H111.693L111.963 29.208L112.531 29.0146ZM115.228 29.0146L115.796 28.8228L115.658 28.4146H115.228V29.0146ZM118.977 40.1221L119.546 40.3115L123.241 29.2041L122.672 29.0146L122.103 28.8252L118.407 39.9327L118.977 40.1221ZM122.672 29.0146V29.6146H125.358V29.0146V28.4146H122.672V29.0146ZM125.358 29.0146L124.789 28.8234L119.751 43.8088L120.32 44L120.888 44.1912L125.926 29.2059L125.358 29.0146ZM120.32 44V43.4H117.634V44V44.6H120.32V44ZM117.634 44L118.202 43.8066L113.099 28.8213L112.531 29.0146L111.963 29.208L117.066 44.1934L117.634 44ZM112.531 29.0146V29.6146H115.228V29.0146V28.4146H112.531V29.0146ZM115.228 29.0146L114.659 29.2065L118.408 40.3139L118.977 40.1221L119.545 39.9302L115.796 28.8228L115.228 29.0146ZM138.259 29.0146H138.859V28.4146H138.259V29.0146ZM138.259 31.1523V31.7523H138.859V31.1523H138.259ZM130.213 31.1523V30.5523H129.613V31.1523H130.213ZM130.213 35.2021H129.613V35.8021H130.213V35.2021ZM137.765 35.2021H138.365V34.6021H137.765V35.2021ZM137.765 37.3506V37.9506H138.365V37.3506H137.765ZM130.213 37.3506V36.7506H129.613V37.3506H130.213ZM130.213 41.8301H129.613V42.4301H130.213V41.8301ZM138.603 41.8301H139.203V41.2301H138.603V41.8301ZM138.603 44V44.6H139.203V44H138.603ZM127.678 44H127.078V44.6H127.678V44ZM127.678 29.0146V28.4146H127.078V29.0146H127.678ZM138.259 29.0146H137.659V31.1523H138.259H138.859V29.0146H138.259ZM138.259 31.1523V30.5523H130.213V31.1523V31.7523H138.259V31.1523ZM130.213 31.1523H129.613V35.2021H130.213H130.813V31.1523H130.213ZM130.213 35.2021V35.8021H137.765V35.2021V34.6021H130.213V35.2021ZM137.765 35.2021H137.165V37.3506H137.765H138.365V35.2021H137.765ZM137.765 37.3506V36.7506H130.213V37.3506V37.9506H137.765V37.3506ZM130.213 37.3506H129.613V41.8301H130.213H130.813V37.3506H130.213ZM130.213 41.8301V42.4301H138.603V41.8301V41.2301H130.213V41.8301ZM138.603 41.8301H138.003V44H138.603H139.203V41.8301H138.603ZM138.603 44V43.4H127.678V44V44.6H138.603V44ZM127.678 44H128.278V29.0146H127.678H127.078V44H127.678ZM127.678 29.0146V29.6146H138.259V29.0146V28.4146H127.678V29.0146ZM144.328 29.0146H144.928V28.4146H144.328V29.0146ZM144.328 41.8301H143.728V42.4301H144.328V41.8301ZM151.536 41.8301H152.136V41.2301H151.536V41.8301ZM151.536 44V44.6H152.136V44H151.536ZM141.793 44H141.193V44.6H141.793V44ZM141.793 29.0146V28.4146H141.193V29.0146H141.793ZM144.328 29.0146H143.728V41.8301H144.328H144.928V29.0146H144.328ZM144.328 41.8301V42.4301H151.536V41.8301V41.2301H144.328V41.8301ZM151.536 41.8301H150.936V44H151.536H152.136V41.8301H151.536ZM151.536 44V43.4H141.793V44V44.6H151.536V44ZM141.793 44H142.393V29.0146H141.793H141.193V44H141.793ZM141.793 29.0146V29.6146H144.328V29.0146V28.4146H141.793V29.0146ZM166.833 39.6709L167.405 39.853L167.405 39.8518L166.833 39.6709ZM165.48 42.1738L165.022 41.7861L165.021 41.7865L165.48 42.1738ZM157.402 43.7959L157.15 44.3406L157.155 44.3431L157.402 43.7959ZM155.232 42.1631L154.771 42.5481L154.776 42.5532L155.232 42.1631ZM153.889 39.6602L153.316 39.8372L153.317 39.8423L153.889 39.6602ZM153.889 33.2793L153.318 33.096L153.316 33.0998L153.889 33.2793ZM155.232 30.8086L154.778 30.4162L154.775 30.4189L155.232 30.8086ZM157.402 29.208L157.159 28.6592L157.157 28.6599L157.402 29.208ZM163.31 29.2188L163.064 29.7659L163.067 29.7676L163.31 29.2188ZM165.48 30.8193L165.023 31.209L165.026 31.2118L165.48 30.8193ZM163.471 32.248L163.004 32.6254L163.011 32.6328L163.471 32.248ZM162.074 31.1416L161.812 31.6812L161.821 31.6853L162.074 31.1416ZM158.615 31.1416L158.872 31.684L158.875 31.6825L158.615 31.1416ZM157.23 32.248L156.763 31.8707L156.763 31.8715L157.23 32.248ZM156.306 34.0312L155.735 33.8467L155.733 33.852L156.306 34.0312ZM156.306 38.8975L155.733 39.0751L155.734 39.0803L156.306 38.8975ZM157.23 40.7236L156.755 41.0902L156.76 41.0976L157.23 40.7236ZM158.615 41.8623L158.347 42.399L158.356 42.4032L158.615 41.8623ZM162.074 41.8623L162.337 42.4019L162.34 42.4004L162.074 41.8623ZM163.471 40.7236L163.002 40.3488L163.002 40.3496L163.471 40.7236ZM164.416 38.8975L163.845 38.7146L164.416 38.8975ZM167.295 36.4697H166.695C166.695 37.5767 166.548 38.5819 166.261 39.49L166.833 39.6709L167.405 39.8518C167.734 38.812 167.895 37.6831 167.895 36.4697H167.295ZM166.833 39.6709L166.261 39.4888C165.975 40.388 165.56 41.1506 165.022 41.7861L165.48 42.1738L165.938 42.5616C166.588 41.7934 167.075 40.8874 167.405 39.853L166.833 39.6709ZM165.48 42.1738L165.021 41.7865C164.494 42.4102 163.844 42.8974 163.064 43.2487L163.31 43.7959L163.556 44.3431C164.494 43.9209 165.291 43.3268 165.938 42.5612L165.48 42.1738ZM163.31 43.7959L163.064 43.2487C162.294 43.595 161.396 43.776 160.356 43.776V44.376V44.976C161.536 44.976 162.607 44.7702 163.556 44.3431L163.31 43.7959ZM160.356 44.376V43.776C159.316 43.776 158.417 43.595 157.648 43.2487L157.402 43.7959L157.155 44.3431C158.105 44.7702 159.176 44.976 160.356 44.976V44.376ZM157.402 43.7959L157.653 43.2513C156.877 42.8926 156.224 42.4003 155.688 41.773L155.232 42.1631L154.776 42.5532C155.428 43.3152 156.221 43.9114 157.15 44.3405L157.402 43.7959ZM155.232 42.1631L155.692 41.7781C155.16 41.1422 154.747 40.3787 154.461 39.4781L153.889 39.6602L153.317 39.8423C153.646 40.8752 154.129 41.7804 154.771 42.5481L155.232 42.1631ZM153.889 39.6602L154.462 39.4831C154.181 38.5738 154.038 37.5673 154.038 36.459H153.438H152.838C152.838 37.671 152.995 38.7986 153.316 39.8372L153.889 39.6602ZM153.438 36.459H154.038C154.038 35.3505 154.181 34.3522 154.461 33.4587L153.889 33.2793L153.316 33.0998C152.995 34.1257 152.838 35.2471 152.838 36.459H153.438ZM153.889 33.2793L154.46 33.4626C154.747 32.57 155.158 31.8187 155.688 31.1983L155.232 30.8086L154.775 30.4189C154.131 31.1735 153.647 32.0693 153.318 33.096L153.889 33.2793ZM155.232 30.8086L155.686 31.201C156.221 30.582 156.872 30.1008 157.646 29.7561L157.402 29.208L157.157 28.6599C156.227 29.0743 155.431 29.6602 154.778 30.4162L155.232 30.8086ZM157.402 29.208L157.644 29.7569C158.414 29.4166 159.314 29.2387 160.356 29.2387V28.6387V28.0387C159.177 28.0387 158.107 28.2403 157.159 28.6592L157.402 29.208ZM160.356 28.6387V29.2387C161.396 29.2387 162.294 29.4197 163.064 29.7659L163.31 29.2188L163.556 28.6716C162.607 28.2444 161.536 28.0387 160.356 28.0387V28.6387ZM163.31 29.2188L163.067 29.7676C163.848 30.1123 164.497 30.5926 165.023 31.209L165.48 30.8193L165.936 30.4296C165.288 29.671 164.491 29.0843 163.552 28.6699L163.31 29.2188ZM165.48 30.8193L165.026 31.2118C165.562 31.8318 165.976 32.5822 166.262 33.4734L166.833 33.29L167.404 33.1067C167.075 32.0786 166.586 31.1818 165.934 30.4269L165.48 30.8193ZM166.833 33.29L166.262 33.4734C166.548 34.3656 166.695 35.3626 166.695 36.4697H167.295H167.895C167.895 35.2566 167.734 34.1338 167.404 33.1067L166.833 33.29ZM164.76 36.459H165.36C165.36 35.5001 165.239 34.6268 164.987 33.8467L164.416 34.0312L163.845 34.2158C164.051 34.8537 164.16 35.5988 164.16 36.459H164.76ZM164.416 34.0312L164.987 33.8467C164.739 33.0782 164.39 32.4123 163.931 31.8633L163.471 32.248L163.011 32.6328C163.354 33.0435 163.635 33.5663 163.845 34.2158L164.416 34.0312ZM163.471 32.248L163.937 31.8707C163.489 31.317 162.953 30.8893 162.328 30.5979L162.074 31.1416L161.821 31.6853C162.27 31.8952 162.665 32.2052 163.004 32.6254L163.471 32.248ZM162.074 31.1416L162.337 30.6021C161.721 30.3027 161.058 30.1549 160.356 30.1549V30.7549V31.3549C160.885 31.3549 161.367 31.4649 161.812 31.6811L162.074 31.1416ZM160.356 30.7549V30.1549C159.647 30.1549 158.978 30.3022 158.356 30.6007L158.615 31.1416L158.875 31.6825C159.327 31.4654 159.818 31.3549 160.356 31.3549V30.7549ZM158.615 31.1416L158.359 30.5992C157.742 30.891 157.21 31.3185 156.763 31.8707L157.23 32.248L157.696 32.6254C158.037 32.2036 158.429 31.8935 158.872 31.684L158.615 31.1416ZM157.23 32.248L156.763 31.8715C156.321 32.419 155.982 33.0821 155.735 33.8467L156.306 34.0312L156.877 34.2158C157.088 33.5624 157.365 33.0367 157.697 32.6246L157.23 32.248ZM156.306 34.0312L155.733 33.852C155.49 34.6303 155.373 35.5018 155.373 36.459H155.973H156.573C156.573 35.5972 156.678 34.8502 156.878 34.2105L156.306 34.0312ZM155.973 36.459H155.373C155.373 37.4164 155.49 38.2907 155.733 39.0751L156.306 38.8975L156.879 38.7198C156.678 38.0719 156.573 37.3206 156.573 36.459H155.973ZM156.306 38.8975L155.734 39.0803C155.981 39.8507 156.318 40.5244 156.755 41.0901L157.23 40.7236L157.705 40.3572C157.368 39.9203 157.089 39.3765 156.877 38.7146L156.306 38.8975ZM157.23 40.7236L156.76 41.0976C157.205 41.6553 157.734 42.0924 158.347 42.399L158.615 41.8623L158.884 41.3256C158.437 41.1022 158.042 40.7802 157.699 40.3496L157.23 40.7236ZM158.615 41.8623L158.356 42.4032C158.978 42.7017 159.647 42.849 160.356 42.849V42.249V41.649C159.818 41.649 159.327 41.5385 158.875 41.3214L158.615 41.8623ZM160.356 42.249V42.849C161.058 42.849 161.721 42.7012 162.337 42.4018L162.074 41.8623L161.812 41.3228C161.367 41.539 160.885 41.649 160.356 41.649V42.249ZM162.074 41.8623L162.34 42.4004C162.96 42.0942 163.494 41.6569 163.94 41.0976L163.471 40.7236L163.002 40.3496C162.66 40.7787 162.263 41.1004 161.809 41.3242L162.074 41.8623ZM163.471 40.7236L163.939 41.0984C164.393 40.5311 164.74 39.8545 164.988 39.0803L164.416 38.8975L163.845 38.7146C163.634 39.3727 163.351 39.9136 163.002 40.3488L163.471 40.7236ZM164.416 38.8975L164.988 39.0803C165.239 38.2942 165.36 37.418 165.36 36.459H164.76H164.16C164.16 37.319 164.052 38.0684 163.845 38.7146L164.416 38.8975ZM170.281 29.0146V28.4146H169.681V29.0146H170.281ZM179.756 30.4541L179.317 30.8636L179.325 30.871L179.756 30.4541ZM180.68 31.8828L180.121 32.1018L180.124 32.1082L180.68 31.8828ZM180.68 35.1484L180.122 34.9281L180.12 34.932L180.68 35.1484ZM179.756 36.5879L180.184 37.0085L180.188 37.0048L179.756 36.5879ZM178.252 37.5977L178.485 38.1505L178.491 38.1481L178.252 37.5977ZM172.817 37.9736V37.3736H172.217V37.9736H172.817ZM172.817 44V44.6H173.417V44H172.817ZM170.281 44H169.681V44.6H170.281V44ZM172.817 35.8467H172.217V36.4467H172.817V35.8467ZM176.985 35.6641L177.181 36.231L177.188 36.2286L176.985 35.6641ZM177.844 35.1484L177.427 34.7172L177.42 34.7242L177.844 35.1484ZM178.317 34.3965L177.749 34.2026L177.746 34.211L178.317 34.3965ZM178.284 32.5381L177.732 32.7728L177.734 32.7778L178.284 32.5381ZM177.747 31.8076L177.351 32.2584L177.359 32.2651L177.747 31.8076ZM176.866 31.3242L176.677 31.8934L176.68 31.8946L176.866 31.3242ZM172.817 31.1523V30.5523H172.217V31.1523H172.817ZM170.281 29.0146V29.6146H176.211V29.0146V28.4146H170.281V29.0146ZM176.211 29.0146V29.6146C176.916 29.6146 177.514 29.7353 178.019 29.9601L178.263 29.4121L178.507 28.8641C177.823 28.559 177.053 28.4146 176.211 28.4146V29.0146ZM178.263 29.4121L178.019 29.9601C178.547 30.1959 178.977 30.4986 179.317 30.8635L179.756 30.4541L180.195 30.0447C179.733 29.5503 179.167 29.1583 178.507 28.8641L178.263 29.4121ZM179.756 30.4541L179.325 30.871C179.68 31.2384 179.943 31.6479 180.121 32.1017L180.68 31.8828L181.239 31.6639C181.001 31.0578 180.649 30.5148 180.188 30.0372L179.756 30.4541ZM180.68 31.8828L180.124 32.1082C180.312 32.5713 180.402 33.0285 180.402 33.4834H181.002H181.602C181.602 32.8641 181.478 32.2543 181.236 31.6574L180.68 31.8828ZM181.002 33.4834H180.402C180.402 33.9712 180.31 34.4516 180.122 34.9281L180.68 35.1484L181.238 35.3687C181.48 34.7568 181.602 34.1272 181.602 33.4834H181.002ZM180.68 35.1484L180.12 34.932C179.942 35.3929 179.678 35.8049 179.325 36.171L179.756 36.5879L180.188 37.0048C180.65 36.5258 181.002 35.9782 181.239 35.3648L180.68 35.1484ZM179.756 36.5879L179.328 36.1673C178.98 36.5218 178.545 36.8167 178.013 37.0472L178.252 37.5977L178.491 38.1481C179.148 37.863 179.716 37.4848 180.184 37.0084L179.756 36.5879ZM178.252 37.5977L178.019 37.0448C177.511 37.2591 176.912 37.3736 176.211 37.3736V37.9736V38.5736C177.043 38.5736 177.805 38.4375 178.485 38.1505L178.252 37.5977ZM176.211 37.9736V37.3736H172.817V37.9736V38.5736H176.211V37.9736ZM172.817 37.9736H172.217V44H172.817H173.417V37.9736H172.817ZM172.817 44V43.4H170.281V44V44.6H172.817V44ZM170.281 44H170.881V29.0146H170.281H169.681V44H170.281ZM172.817 35.8467V36.4467H175.674V35.8467V35.2467H172.817V35.8467ZM175.674 35.8467V36.4467C176.239 36.4467 176.747 36.3815 177.181 36.2309L176.985 35.6641L176.788 35.0972C176.52 35.1901 176.155 35.2467 175.674 35.2467V35.8467ZM176.985 35.6641L177.188 36.2286C177.609 36.0771 177.977 35.8637 178.268 35.5727L177.844 35.1484L177.42 34.7242C177.281 34.8629 177.077 34.9932 176.781 35.0995L176.985 35.6641ZM177.844 35.1484L178.261 35.5796C178.552 35.2984 178.763 34.9641 178.887 34.5819L178.317 34.3965L177.746 34.211C177.684 34.4018 177.58 34.5688 177.427 34.7173L177.844 35.1484ZM178.317 34.3965L178.884 34.5904C179.008 34.2293 179.067 33.8481 179.067 33.4512H178.467H177.867C177.867 33.7274 177.826 33.9765 177.749 34.2026L178.317 34.3965ZM178.467 33.4512H179.067C179.067 33.046 178.992 32.6592 178.834 32.2983L178.284 32.5381L177.734 32.7778C177.821 32.9755 177.867 33.1975 177.867 33.4512H178.467ZM178.284 32.5381L178.837 32.3034C178.678 31.9313 178.443 31.6114 178.135 31.3501L177.747 31.8076L177.359 32.2651C177.524 32.4049 177.647 32.572 177.732 32.7728L178.284 32.5381ZM177.747 31.8076L178.143 31.3569C177.836 31.0871 177.468 30.8894 177.053 30.7539L176.866 31.3242L176.68 31.8946C176.967 31.9882 177.186 32.1128 177.351 32.2583L177.747 31.8076ZM176.866 31.3242L177.056 30.755C176.638 30.6157 176.175 30.5523 175.674 30.5523V31.1523V31.7523C176.076 31.7523 176.407 31.8035 176.677 31.8934L176.866 31.3242ZM175.674 31.1523V30.5523H172.817V31.1523V31.7523H175.674V31.1523ZM172.817 31.1523H172.217V35.8467H172.817H173.417V31.1523H172.817ZM194.484 29.0146H195.084V28.4146H194.484V29.0146ZM194.484 31.1523V31.7523H195.084V31.1523H194.484ZM186.438 31.1523V30.5523H185.838V31.1523H186.438ZM186.438 35.2021H185.838V35.8021H186.438V35.2021ZM193.989 35.2021H194.589V34.6021H193.989V35.2021ZM193.989 37.3506V37.9506H194.589V37.3506H193.989ZM186.438 37.3506V36.7506H185.838V37.3506H186.438ZM186.438 41.8301H185.838V42.4301H186.438V41.8301ZM194.827 41.8301H195.427V41.2301H194.827V41.8301ZM194.827 44V44.6H195.427V44H194.827ZM183.903 44H183.303V44.6H183.903V44ZM183.903 29.0146V28.4146H183.303V29.0146H183.903ZM194.484 29.0146H193.884V31.1523H194.484H195.084V29.0146H194.484ZM194.484 31.1523V30.5523H186.438V31.1523V31.7523H194.484V31.1523ZM186.438 31.1523H185.838V35.2021H186.438H187.038V31.1523H186.438ZM186.438 35.2021V35.8021H193.989V35.2021V34.6021H186.438V35.2021ZM193.989 35.2021H193.389V37.3506H193.989H194.589V35.2021H193.989ZM193.989 37.3506V36.7506H186.438V37.3506V37.9506H193.989V37.3506ZM186.438 37.3506H185.838V41.8301H186.438H187.038V37.3506H186.438ZM186.438 41.8301V42.4301H194.827V41.8301V41.2301H186.438V41.8301ZM194.827 41.8301H194.227V44H194.827H195.427V41.8301H194.827ZM194.827 44V43.4H183.903V44V44.6H194.827V44ZM183.903 44H184.503V29.0146H183.903H183.303V44H183.903ZM183.903 29.0146V29.6146H194.484V29.0146V28.4146H183.903V29.0146ZM208.695 35.2666L208.179 34.9607L208.178 34.9627L208.695 35.2666ZM207.149 36.7598L206.837 36.2471L205.75 36.9084L206.952 37.3265L207.149 36.7598ZM208.577 37.9844L208.052 38.2746L208.056 38.2805L208.577 37.9844ZM208.91 38.8438L208.326 38.9797L208.327 38.9827L208.91 38.8438ZM209.211 42.8721L208.645 43.0718L208.649 43.0815L209.211 42.8721ZM209.759 44V44.6H210.812L210.275 43.6941L209.759 44ZM206.987 44L206.479 44.318L206.655 44.6H206.987V44ZM206.719 43.4629L206.152 43.6592L206.155 43.6688L206.159 43.6783L206.719 43.4629ZM206.569 42.915L205.976 43.0098L205.978 43.0213L205.98 43.0327L206.569 42.915ZM206.504 42.4102L205.905 42.4374L205.905 42.451L205.907 42.4645L206.504 42.4102ZM206.375 39.0479L205.804 39.2321L205.807 39.2403L205.81 39.2485L206.375 39.0479ZM206.021 38.457L205.579 38.8633L205.588 38.8722L206.021 38.457ZM205.365 38.0273L205.133 38.5805L205.145 38.5854L205.365 38.0273ZM200.553 37.8555V37.2555H199.953V37.8555H200.553ZM200.553 44V44.6H201.153V44H200.553ZM198.018 44H197.418V44.6H198.018V44ZM198.018 29.0146V28.4146H197.418V29.0146H198.018ZM207.954 30.4111L207.526 30.8317L207.53 30.8354L207.954 30.4111ZM208.889 31.8184L208.331 32.0399L208.334 32.0464L208.889 31.8184ZM200.553 35.7285H199.953V36.3285H200.553V35.7285ZM205.247 35.5674L205.468 36.1255L205.475 36.1225L205.247 35.5674ZM205.978 35.1055L206.387 35.5446L206.387 35.5441L205.978 35.1055ZM206.493 32.5488L205.936 32.7717L205.938 32.7766L206.493 32.5488ZM206.01 31.8184L205.578 32.2351L205.586 32.2427L205.593 32.25L206.01 31.8184ZM205.29 31.335L205.05 31.8851L205.062 31.8901L205.29 31.335ZM200.553 31.1523V30.5523H199.953V31.1523H200.553ZM209.211 33.4082H208.611C208.611 33.9568 208.47 34.471 208.179 34.9607L208.695 35.2666L209.212 35.5725C209.609 34.9021 209.811 34.1773 209.811 33.4082H209.211ZM208.695 35.2666L208.178 34.9627C207.902 35.433 207.466 35.8647 206.837 36.2471L207.149 36.7598L207.46 37.2724C208.221 36.8097 208.816 36.246 209.213 35.5705L208.695 35.2666ZM207.149 36.7598L206.952 37.3265C207.212 37.4169 207.422 37.5423 207.594 37.6979L207.997 37.2539L208.401 36.8099C208.099 36.5359 207.744 36.3318 207.346 36.1931L207.149 36.7598ZM207.997 37.2539L207.594 37.6979C207.783 37.8697 207.934 38.0616 208.052 38.2746L208.577 37.9844L209.102 37.6942C208.919 37.3629 208.685 37.0678 208.401 36.8099L207.997 37.2539ZM208.577 37.9844L208.056 38.2805C208.176 38.4935 208.267 38.7257 208.326 38.9797L208.91 38.8438L209.495 38.7078C209.411 38.3459 209.279 38.0052 209.099 37.6882L208.577 37.9844ZM208.91 38.8438L208.327 38.9827C208.388 39.2393 208.418 39.4934 208.418 39.7461H209.018H209.618C209.618 39.3972 209.576 39.0498 209.494 38.7048L208.91 38.8438ZM209.018 39.7461H208.418V41.916H209.018H209.618V39.7461H209.018ZM209.018 41.916H208.418C208.418 42.2783 208.503 42.6673 208.645 43.0718L209.211 42.8721L209.777 42.6724C209.662 42.3464 209.618 42.098 209.618 41.916H209.018ZM209.211 42.8721L208.649 43.0815C208.799 43.4848 208.998 43.893 209.243 44.3059L209.759 44L210.275 43.6941C210.061 43.3335 209.895 42.9898 209.773 42.6626L209.211 42.8721ZM209.759 44V43.4H206.987V44V44.6H209.759V44ZM206.987 44L207.496 43.682C207.409 43.5421 207.337 43.3974 207.279 43.2475L206.719 43.4629L206.159 43.6783C206.245 43.9008 206.351 44.1142 206.479 44.318L206.987 44ZM206.719 43.4629L207.286 43.2666C207.23 43.1041 207.187 42.9478 207.157 42.7974L206.569 42.915L205.98 43.0327C206.022 43.2404 206.079 43.4493 206.152 43.6592L206.719 43.4629ZM206.569 42.915L207.161 42.8202C207.134 42.6527 207.115 42.4981 207.102 42.3558L206.504 42.4102L205.907 42.4645C205.922 42.6374 205.946 42.8193 205.976 43.0098L206.569 42.915ZM206.504 42.4102L207.103 42.3829C207.097 42.2319 207.093 42.1017 207.093 41.9912H206.493H205.893C205.893 42.1242 205.897 42.2733 205.905 42.4374L206.504 42.4102ZM206.493 41.9912H207.093V39.7139H206.493H205.893V41.9912H206.493ZM206.493 39.7139H207.093C207.093 39.4194 207.041 39.1297 206.941 38.8472L206.375 39.0479L205.81 39.2485C205.867 39.41 205.893 39.5643 205.893 39.7139H206.493ZM206.375 39.0479L206.946 38.8637C206.846 38.5534 206.68 38.2779 206.454 38.0419L206.021 38.457L205.588 38.8722C205.691 38.9799 205.761 39.0983 205.804 39.2321L206.375 39.0479ZM206.021 38.457L206.462 38.0508C206.225 37.7929 205.925 37.6033 205.586 37.4692L205.365 38.0273L205.145 38.5854C205.35 38.6662 205.487 38.7631 205.579 38.8633L206.021 38.457ZM205.365 38.0273L205.598 37.4744C205.233 37.3207 204.82 37.2555 204.377 37.2555V37.8555V38.4555C204.707 38.4555 204.953 38.5048 205.133 38.5803L205.365 38.0273ZM204.377 37.8555V37.2555H200.553V37.8555V38.4555H204.377V37.8555ZM200.553 37.8555H199.953V44H200.553H201.153V37.8555H200.553ZM200.553 44V43.4H198.018V44V44.6H200.553V44ZM198.018 44H198.618V29.0146H198.018H197.418V44H198.018ZM198.018 29.0146V29.6146H204.377V29.0146V28.4146H198.018V29.0146ZM204.377 29.0146V29.6146C205.084 29.6146 205.689 29.7323 206.203 29.9529L206.44 29.4014L206.676 28.8499C205.987 28.5548 205.217 28.4146 204.377 28.4146V29.0146ZM206.44 29.4014L206.203 29.9529C206.742 30.1837 207.179 30.4785 207.526 30.8317L207.954 30.4111L208.382 29.9906C207.913 29.513 207.34 29.1347 206.676 28.8499L206.44 29.4014ZM207.954 30.4111L207.53 30.8354C207.89 31.1956 208.155 31.5964 208.331 32.0399L208.889 31.8184L209.446 31.5968C209.207 30.9947 208.849 30.4574 208.379 29.9869L207.954 30.4111ZM208.889 31.8184L208.334 32.0464C208.521 32.5007 208.611 32.9534 208.611 33.4082H209.211H209.811C209.811 32.7888 209.687 32.1816 209.444 31.5903L208.889 31.8184ZM200.553 35.7285V36.3285H204.377V35.7285V35.1285H200.553V35.7285ZM204.377 35.7285V36.3285C204.756 36.3285 205.122 36.262 205.468 36.1255L205.247 35.5674L205.027 35.0093C204.829 35.0876 204.614 35.1285 204.377 35.1285V35.7285ZM205.247 35.5674L205.475 36.1225C205.817 35.9822 206.123 35.7903 206.387 35.5446L205.978 35.1055L205.569 34.6663C205.417 34.8074 205.236 34.9234 205.02 35.0123L205.247 35.5674ZM205.978 35.1055L206.387 35.5441C206.664 35.2855 206.879 34.9772 207.033 34.6255L206.483 34.3857L205.933 34.146C205.842 34.3529 205.721 34.5244 205.568 34.6668L205.978 35.1055ZM206.483 34.3857L207.033 34.6255C207.191 34.263 207.265 33.8723 207.265 33.4619H206.665H206.065C206.065 33.7247 206.018 33.9499 205.933 34.146L206.483 34.3857ZM206.665 33.4619H207.265C207.265 33.0615 207.195 32.679 207.048 32.3211L206.493 32.5488L205.938 32.7766C206.021 32.9772 206.065 33.2034 206.065 33.4619H206.665ZM206.493 32.5488L207.05 32.326C206.907 31.9663 206.7 31.6501 206.427 31.3867L206.01 31.8184L205.593 32.25C205.736 32.3876 205.851 32.5584 205.936 32.7717L206.493 32.5488ZM206.01 31.8184L206.442 31.4016C206.181 31.1315 205.87 30.9245 205.518 30.7799L205.29 31.335L205.062 31.8901C205.269 31.9746 205.438 32.0899 205.578 32.2351L206.01 31.8184ZM205.29 31.335L205.53 30.7849C205.169 30.6276 204.782 30.5523 204.377 30.5523V31.1523V31.7523C204.631 31.7523 204.853 31.7988 205.05 31.885L205.29 31.335ZM204.377 31.1523V30.5523H200.553V31.1523V31.7523H204.377V31.1523ZM200.553 31.1523H199.953V35.7285H200.553H201.153V31.1523H200.553Z" fill="#363636" mask="url(#path-2-outside-1_1585_615)"/>
<path d="M87.9416 56.1973L85.9377 63H85.0353L82.9787 54.8262H83.8869L85.5158 61.4414L87.5314 54.8262H88.3576L90.3557 61.377C90.6213 60.2871 90.8967 59.1973 91.1818 58.1074C91.467 57.0176 91.7424 55.9238 92.008 54.8262H92.9162L90.8478 63H89.9514L87.9416 56.1973ZM94.3635 60.1641C94.3674 60.4375 94.4142 60.707 94.5041 60.9727C94.5978 61.2344 94.7228 61.4688 94.8791 61.6758C95.0392 61.8789 95.2267 62.0449 95.4416 62.1738C95.6564 62.2988 95.8889 62.3613 96.1389 62.3613C96.9826 62.3613 97.5432 61.9688 97.8205 61.1836H98.6115C98.5451 61.4883 98.4338 61.7617 98.2775 62.0039C98.1213 62.2422 97.9318 62.4453 97.7092 62.6133C97.4865 62.7773 97.2404 62.9023 96.9709 62.9883C96.7014 63.0742 96.424 63.1172 96.1389 63.1172C95.7287 63.1172 95.3576 63.0293 95.0256 62.8535C94.6974 62.6777 94.4162 62.4434 94.1818 62.1504C93.9474 61.8574 93.7678 61.5195 93.6428 61.1367C93.5178 60.75 93.4553 60.3457 93.4553 59.9238C93.4553 59.5293 93.5178 59.1504 93.6428 58.7871C93.7678 58.4238 93.9455 58.1035 94.176 57.8262C94.4103 57.5488 94.6916 57.3281 95.0197 57.1641C95.3517 57 95.7228 56.918 96.133 56.918C96.5314 56.918 96.8889 56.9922 97.2053 57.1406C97.5256 57.2891 97.799 57.4941 98.0256 57.7559C98.2521 58.0176 98.426 58.3242 98.5471 58.6758C98.6682 59.0273 98.7287 59.4082 98.7287 59.8184V60.1641H94.3635ZM97.8322 59.4961C97.8244 59.2461 97.7775 59.0117 97.6916 58.793C97.6096 58.5742 97.4924 58.3828 97.34 58.2188C97.1916 58.0547 97.0099 57.9258 96.7951 57.832C96.5803 57.7383 96.34 57.6914 96.0744 57.6914C95.8322 57.6914 95.6076 57.7422 95.4006 57.8438C95.1935 57.9453 95.0139 58.0801 94.8615 58.248C94.7092 58.416 94.5881 58.6094 94.4982 58.8281C94.4123 59.043 94.3674 59.2656 94.3635 59.4961H97.8322ZM100.082 54.7852H100.949V57.8789C101.051 57.7383 101.166 57.6094 101.295 57.4922C101.428 57.375 101.567 57.2734 101.711 57.1875C101.86 57.1016 102.01 57.0352 102.162 56.9883C102.315 56.9414 102.461 56.918 102.602 56.918C103.004 56.918 103.356 57.0039 103.656 57.1758C103.961 57.3438 104.213 57.5723 104.412 57.8613C104.615 58.1504 104.768 58.4863 104.869 58.8691C104.971 59.248 105.022 59.6484 105.022 60.0703C105.022 60.4922 104.969 60.8887 104.863 61.2598C104.762 61.6309 104.608 61.9551 104.401 62.2324C104.197 62.5059 103.944 62.7227 103.639 62.8828C103.334 63.0391 102.981 63.1172 102.578 63.1172C102.27 63.1172 101.969 63.0332 101.676 62.8652C101.387 62.6934 101.145 62.4395 100.949 62.1035V63H100.082V54.7852ZM100.949 60.0703C100.949 60.3867 100.985 60.6836 101.055 60.9609C101.125 61.2344 101.229 61.4746 101.365 61.6816C101.502 61.8887 101.668 62.0527 101.863 62.1738C102.063 62.291 102.289 62.3496 102.543 62.3496C102.801 62.3496 103.029 62.291 103.229 62.1738C103.428 62.0527 103.596 61.8906 103.733 61.6875C103.873 61.4805 103.979 61.2402 104.049 60.9668C104.119 60.6895 104.154 60.3926 104.154 60.0762C104.154 59.7598 104.119 59.459 104.049 59.1738C103.979 58.8848 103.873 58.6309 103.733 58.4121C103.596 58.1934 103.428 58.0195 103.229 57.8906C103.029 57.7578 102.801 57.6914 102.543 57.6914C102.297 57.6914 102.074 57.7539 101.875 57.8789C101.68 58 101.512 58.1641 101.371 58.3711C101.235 58.5742 101.129 58.8066 101.055 59.0684C100.985 59.3301 100.949 59.6016 100.949 59.8828V60.0703ZM106.703 61.1836C106.707 61.3984 106.744 61.5801 106.815 61.7285C106.885 61.877 106.981 61.998 107.102 62.0918C107.223 62.1855 107.363 62.2539 107.524 62.2969C107.688 62.3398 107.867 62.3613 108.063 62.3613C108.219 62.3613 108.383 62.3477 108.555 62.3203C108.731 62.2891 108.891 62.2383 109.035 62.168C109.18 62.0977 109.299 62.0039 109.393 61.8867C109.487 61.7656 109.533 61.6133 109.533 61.4297C109.533 61.2617 109.483 61.1191 109.381 61.002C109.279 60.8848 109.147 60.7812 108.983 60.6914C108.819 60.6016 108.631 60.5215 108.42 60.4512C108.209 60.377 107.994 60.3008 107.776 60.2227C107.557 60.1445 107.342 60.0605 107.131 59.9707C106.92 59.877 106.733 59.7656 106.569 59.6367C106.404 59.5078 106.272 59.3555 106.17 59.1797C106.069 59.0039 106.018 58.793 106.018 58.5469C106.018 58.2891 106.074 58.0586 106.188 57.8555C106.301 57.6523 106.451 57.4824 106.639 57.3457C106.83 57.2051 107.049 57.0996 107.295 57.0293C107.541 56.9551 107.797 56.918 108.063 56.918C108.363 56.918 108.643 56.9551 108.901 57.0293C109.158 57.0996 109.383 57.207 109.574 57.3516C109.77 57.4922 109.924 57.6699 110.037 57.8848C110.154 58.0957 110.219 58.3398 110.231 58.6172H109.34C109.32 58.4609 109.274 58.3242 109.199 58.207C109.129 58.0898 109.035 57.9941 108.918 57.9199C108.805 57.8418 108.674 57.7852 108.526 57.75C108.381 57.7109 108.227 57.6914 108.063 57.6914C107.871 57.6914 107.701 57.7148 107.553 57.7617C107.408 57.8086 107.285 57.873 107.184 57.9551C107.086 58.0332 107.012 58.125 106.961 58.2305C106.91 58.3359 106.885 58.4453 106.885 58.5586C106.885 58.7109 106.936 58.8438 107.037 58.957C107.139 59.0703 107.272 59.1719 107.436 59.2617C107.6 59.3516 107.787 59.4336 107.998 59.5078C108.209 59.582 108.424 59.6602 108.643 59.7422C108.862 59.8203 109.076 59.9062 109.287 60C109.498 60.0938 109.686 60.2031 109.85 60.3281C110.014 60.4492 110.147 60.5918 110.248 60.7559C110.35 60.9199 110.401 61.1133 110.401 61.3359C110.401 61.6562 110.336 61.9297 110.207 62.1562C110.082 62.3789 109.912 62.5625 109.697 62.707C109.483 62.8477 109.233 62.9512 108.947 63.0176C108.666 63.084 108.371 63.1172 108.063 63.1172C107.762 63.1172 107.477 63.0781 107.207 63C106.938 62.918 106.701 62.7969 106.498 62.6367C106.295 62.4766 106.131 62.2754 106.006 62.0332C105.885 61.791 105.819 61.5078 105.807 61.1836H106.703ZM112.61 54.7852V55.7988H111.742V54.7852H112.61ZM112.61 57.0352V63H111.742V57.0352H112.61ZM115.51 55.3828V57.0352H116.565V57.7734H115.51V61.6816C115.51 61.8105 115.526 61.9199 115.557 62.0098C115.592 62.0957 115.637 62.166 115.692 62.2207C115.75 62.2715 115.819 62.3086 115.897 62.332C115.975 62.3516 116.059 62.3613 116.149 62.3613C116.258 62.3613 116.371 62.3516 116.488 62.332C116.606 62.3086 116.707 62.2871 116.793 62.2676V62.9766C116.692 63.0078 116.559 63.0391 116.395 63.0703C116.235 63.1016 116.069 63.1172 115.897 63.1172C115.748 63.1172 115.598 63.0957 115.445 63.0527C115.297 63.0137 115.162 62.9492 115.041 62.8594C114.924 62.7695 114.828 62.6543 114.754 62.5137C114.68 62.3691 114.643 62.1934 114.643 61.9863V57.7734H113.729V57.0352H114.643V55.3828H115.51ZM118.492 60.1641C118.496 60.4375 118.543 60.707 118.633 60.9727C118.727 61.2344 118.852 61.4688 119.008 61.6758C119.168 61.8789 119.356 62.0449 119.57 62.1738C119.785 62.2988 120.018 62.3613 120.268 62.3613C121.112 62.3613 121.672 61.9688 121.949 61.1836H122.74C122.674 61.4883 122.563 61.7617 122.406 62.0039C122.25 62.2422 122.061 62.4453 121.838 62.6133C121.615 62.7773 121.369 62.9023 121.1 62.9883C120.83 63.0742 120.553 63.1172 120.268 63.1172C119.858 63.1172 119.487 63.0293 119.154 62.8535C118.826 62.6777 118.545 62.4434 118.311 62.1504C118.076 61.8574 117.897 61.5195 117.772 61.1367C117.647 60.75 117.584 60.3457 117.584 59.9238C117.584 59.5293 117.647 59.1504 117.772 58.7871C117.897 58.4238 118.074 58.1035 118.305 57.8262C118.539 57.5488 118.82 57.3281 119.149 57.1641C119.481 57 119.852 56.918 120.262 56.918C120.66 56.918 121.018 56.9922 121.334 57.1406C121.654 57.2891 121.928 57.4941 122.154 57.7559C122.381 58.0176 122.555 58.3242 122.676 58.6758C122.797 59.0273 122.858 59.4082 122.858 59.8184V60.1641H118.492ZM121.961 59.4961C121.953 59.2461 121.906 59.0117 121.82 58.793C121.738 58.5742 121.621 58.3828 121.469 58.2188C121.32 58.0547 121.139 57.9258 120.924 57.832C120.709 57.7383 120.469 57.6914 120.203 57.6914C119.961 57.6914 119.737 57.7422 119.529 57.8438C119.322 57.9453 119.143 58.0801 118.99 58.248C118.838 58.416 118.717 58.6094 118.627 58.8281C118.541 59.043 118.496 59.2656 118.492 59.4961H121.961ZM127.598 60.4453C127.617 60.7383 127.684 61.0078 127.797 61.2539C127.91 61.4961 128.061 61.707 128.248 61.8867C128.436 62.0664 128.656 62.207 128.91 62.3086C129.168 62.4062 129.449 62.4551 129.754 62.4551C130.028 62.4551 130.289 62.4258 130.539 62.3672C130.789 62.3047 131.01 62.209 131.201 62.0801C131.393 61.9473 131.545 61.7773 131.658 61.5703C131.772 61.3594 131.828 61.1055 131.828 60.8086C131.828 60.5664 131.766 60.3613 131.641 60.1934C131.52 60.0215 131.358 59.875 131.154 59.7539C130.955 59.6289 130.727 59.5215 130.469 59.4316C130.215 59.3418 129.957 59.2578 129.695 59.1797C129.477 59.1172 129.256 59.0488 129.033 58.9746C128.815 58.9004 128.602 58.8164 128.395 58.7227C128.192 58.6289 128 58.5215 127.82 58.4004C127.645 58.2793 127.49 58.1367 127.358 57.9727C127.229 57.8086 127.125 57.623 127.047 57.416C126.973 57.2051 126.936 56.9629 126.936 56.6895C126.936 56.3496 127.002 56.0508 127.135 55.793C127.268 55.5312 127.453 55.3125 127.692 55.1367C127.934 54.9609 128.221 54.8281 128.553 54.7383C128.889 54.6445 129.256 54.5977 129.654 54.5977C130.01 54.5977 130.324 54.6328 130.598 54.7031C130.871 54.7734 131.11 54.8691 131.313 54.9902C131.516 55.1113 131.688 55.2539 131.828 55.418C131.969 55.5781 132.084 55.748 132.174 55.9277C132.264 56.1074 132.33 56.293 132.373 56.4844C132.416 56.6758 132.444 56.8594 132.455 57.0352H131.565C131.541 56.7617 131.475 56.5215 131.365 56.3145C131.26 56.1074 131.121 55.9336 130.949 55.793C130.781 55.6523 130.586 55.5469 130.363 55.4766C130.141 55.4062 129.904 55.3711 129.654 55.3711C129.424 55.3711 129.197 55.3945 128.975 55.4414C128.756 55.4883 128.559 55.5645 128.383 55.6699C128.211 55.7715 128.07 55.9062 127.961 56.0742C127.856 56.2422 127.803 56.4473 127.803 56.6895C127.803 56.9395 127.863 57.1523 127.985 57.3281C128.106 57.5 128.268 57.6484 128.471 57.7734C128.674 57.8984 128.904 58.0059 129.162 58.0957C129.424 58.1855 129.694 58.2734 129.971 58.3594C130.194 58.4258 130.414 58.4961 130.633 58.5703C130.852 58.6445 131.063 58.7285 131.266 58.8223C131.469 58.916 131.656 59.0234 131.828 59.1445C132.004 59.2617 132.156 59.4004 132.285 59.5605C132.414 59.7168 132.514 59.8984 132.584 60.1055C132.658 60.3086 132.695 60.543 132.695 60.8086C132.695 61.207 132.621 61.5586 132.473 61.8633C132.328 62.1641 132.125 62.416 131.863 62.6191C131.602 62.8223 131.291 62.9746 130.932 63.0762C130.572 63.1816 130.18 63.2344 129.754 63.2344C129.371 63.2344 128.998 63.168 128.635 63.0352C128.272 62.9062 127.947 62.7227 127.662 62.4844C127.381 62.2422 127.153 61.9492 126.977 61.6055C126.805 61.2617 126.713 60.875 126.701 60.4453H127.598ZM134.781 60.1641C134.785 60.4375 134.832 60.707 134.922 60.9727C135.016 61.2344 135.141 61.4688 135.297 61.6758C135.457 61.8789 135.645 62.0449 135.86 62.1738C136.074 62.2988 136.307 62.3613 136.557 62.3613C137.401 62.3613 137.961 61.9688 138.238 61.1836H139.029C138.963 61.4883 138.852 61.7617 138.695 62.0039C138.539 62.2422 138.35 62.4453 138.127 62.6133C137.904 62.7773 137.658 62.9023 137.389 62.9883C137.119 63.0742 136.842 63.1172 136.557 63.1172C136.147 63.1172 135.776 63.0293 135.444 62.8535C135.115 62.6777 134.834 62.4434 134.6 62.1504C134.365 61.8574 134.186 61.5195 134.061 61.1367C133.936 60.75 133.873 60.3457 133.873 59.9238C133.873 59.5293 133.936 59.1504 134.061 58.7871C134.186 58.4238 134.363 58.1035 134.594 57.8262C134.828 57.5488 135.11 57.3281 135.438 57.1641C135.77 57 136.141 56.918 136.551 56.918C136.949 56.918 137.307 56.9922 137.623 57.1406C137.944 57.2891 138.217 57.4941 138.444 57.7559C138.67 58.0176 138.844 58.3242 138.965 58.6758C139.086 59.0273 139.147 59.4082 139.147 59.8184V60.1641H134.781ZM138.25 59.4961C138.242 59.2461 138.195 59.0117 138.11 58.793C138.028 58.5742 137.91 58.3828 137.758 58.2188C137.61 58.0547 137.428 57.9258 137.213 57.832C136.998 57.7383 136.758 57.6914 136.492 57.6914C136.25 57.6914 136.026 57.7422 135.819 57.8438C135.612 57.9453 135.432 58.0801 135.279 58.248C135.127 58.416 135.006 58.6094 134.916 58.8281C134.83 59.043 134.785 59.2656 134.781 59.4961H138.25ZM140.5 57.0352H141.367V57.9551C141.488 57.7715 141.623 57.6152 141.772 57.4863C141.924 57.3535 142.08 57.2461 142.24 57.1641C142.404 57.0781 142.569 57.0156 142.733 56.9766C142.897 56.9375 143.053 56.918 143.201 56.918C143.498 56.918 143.778 57 144.039 57.1641C144.301 57.3242 144.541 57.6035 144.76 58.002C144.873 57.8105 145.004 57.6465 145.153 57.5098C145.305 57.373 145.465 57.2617 145.633 57.1758C145.801 57.0859 145.973 57.0215 146.149 56.9824C146.324 56.9395 146.496 56.918 146.664 56.918C146.934 56.918 147.18 56.9629 147.403 57.0527C147.629 57.1426 147.824 57.2676 147.988 57.4277C148.153 57.584 148.279 57.7715 148.369 57.9902C148.463 58.209 148.51 58.4453 148.51 58.6992V63H147.643V58.9453C147.643 58.6992 147.608 58.4961 147.537 58.3359C147.471 58.1758 147.383 58.0488 147.274 57.9551C147.164 57.8574 147.039 57.791 146.899 57.7559C146.762 57.7168 146.625 57.6973 146.488 57.6973C146.309 57.6973 146.127 57.7383 145.944 57.8203C145.764 57.8984 145.6 58.0098 145.451 58.1543C145.307 58.2949 145.188 58.4629 145.094 58.6582C145.004 58.8496 144.959 59.0586 144.959 59.2852V63H144.092V58.9453C144.092 58.6992 144.057 58.4961 143.987 58.3359C143.916 58.1719 143.826 58.043 143.717 57.9492C143.612 57.8555 143.494 57.7891 143.365 57.75C143.237 57.7109 143.113 57.6914 142.996 57.6914C142.766 57.6914 142.551 57.7441 142.352 57.8496C142.156 57.9551 141.985 58.0898 141.836 58.2539C141.692 58.418 141.576 58.5977 141.49 58.793C141.408 58.9883 141.367 59.1738 141.367 59.3496V63H140.5V57.0352ZM154.979 63H154.112V61.9336C153.959 62.1328 153.799 62.3008 153.631 62.4375C153.467 62.5742 153.297 62.6855 153.121 62.7715C152.945 62.8535 152.766 62.9121 152.582 62.9473C152.403 62.9824 152.219 63 152.031 63C151.758 63 151.512 62.959 151.293 62.877C151.078 62.7949 150.895 62.6777 150.742 62.5254C150.59 62.373 150.473 62.1895 150.391 61.9746C150.313 61.7559 150.274 61.5117 150.274 61.2422V57.0352H151.141V61.1309C151.141 61.334 151.164 61.5059 151.211 61.6465C151.262 61.7871 151.332 61.9023 151.422 61.9922C151.516 62.0781 151.629 62.1406 151.762 62.1797C151.895 62.2188 152.045 62.2383 152.213 62.2383C152.475 62.2383 152.721 62.1875 152.951 62.0859C153.182 61.9805 153.383 61.8477 153.555 61.6875C153.727 61.5234 153.862 61.3418 153.959 61.1426C154.061 60.9434 154.112 60.748 154.112 60.5566V57.0352H154.979V63ZM160.422 59.918C160.414 59.6133 160.373 59.3262 160.299 59.0566C160.225 58.7871 160.119 58.5527 159.983 58.3535C159.846 58.1504 159.68 57.9902 159.485 57.873C159.289 57.752 159.067 57.6914 158.817 57.6914C158.563 57.6914 158.334 57.7539 158.131 57.8789C157.932 58 157.764 58.166 157.627 58.377C157.49 58.5879 157.385 58.834 157.311 59.1152C157.24 59.3965 157.205 59.6953 157.205 60.0117C157.205 60.3281 157.24 60.627 157.311 60.9082C157.385 61.1895 157.49 61.4375 157.627 61.6523C157.764 61.8672 157.932 62.0371 158.131 62.1621C158.334 62.2871 158.563 62.3496 158.817 62.3496C159.07 62.3496 159.297 62.291 159.496 62.1738C159.695 62.0527 159.863 61.8887 160 61.6816C160.137 61.4746 160.24 61.2344 160.311 60.9609C160.385 60.6836 160.422 60.3867 160.422 60.0703V59.918ZM161.289 63H160.422V62.1035C160.219 62.4395 159.971 62.6934 159.678 62.8652C159.385 63.0332 159.086 63.1172 158.781 63.1172C158.383 63.1172 158.031 63.0352 157.727 62.8711C157.422 62.707 157.166 62.4844 156.959 62.2031C156.756 61.918 156.602 61.5879 156.496 61.2129C156.391 60.834 156.338 60.4336 156.338 60.0117C156.338 59.5898 156.389 59.1914 156.49 58.8164C156.592 58.4414 156.744 58.1133 156.947 57.832C157.151 57.5508 157.403 57.3281 157.703 57.1641C158.008 57 158.36 56.918 158.758 56.918C159.039 56.918 159.319 56.9902 159.596 57.1348C159.877 57.2754 160.153 57.5234 160.422 57.8789V54.7852H161.289V63ZM167.869 63.0469C167.815 63.0664 167.742 63.082 167.653 63.0938C167.567 63.1094 167.494 63.1172 167.436 63.1172C167.194 63.1172 166.988 63.0254 166.82 62.8418C166.656 62.6543 166.565 62.3691 166.545 61.9863C166.358 62.2285 166.172 62.4238 165.988 62.5723C165.809 62.7207 165.629 62.8359 165.449 62.918C165.27 62.9961 165.088 63.0488 164.904 63.0762C164.725 63.1035 164.541 63.1172 164.354 63.1172C164.112 63.1172 163.885 63.0781 163.674 63C163.463 62.9219 163.278 62.8105 163.117 62.666C162.961 62.5215 162.838 62.3477 162.748 62.1445C162.658 61.9414 162.613 61.7148 162.613 61.4648C162.613 61.2148 162.668 61.002 162.778 60.8262C162.887 60.6465 163.031 60.4922 163.211 60.3633C163.395 60.2344 163.6 60.127 163.826 60.041C164.057 59.9512 164.291 59.873 164.529 59.8066C164.772 59.7363 165.008 59.6699 165.238 59.6074C165.469 59.5449 165.674 59.4766 165.854 59.4023C166.037 59.3242 166.184 59.2363 166.293 59.1387C166.403 59.0371 166.457 58.9121 166.457 58.7637C166.457 58.5918 166.424 58.4395 166.358 58.3066C166.291 58.1738 166.197 58.0625 166.076 57.9727C165.955 57.8789 165.809 57.8086 165.637 57.7617C165.465 57.7148 165.276 57.6914 165.069 57.6914C164.893 57.6914 164.727 57.7148 164.57 57.7617C164.414 57.8047 164.274 57.8691 164.149 57.9551C164.024 58.041 163.92 58.1465 163.838 58.2715C163.756 58.3965 163.703 58.541 163.68 58.7051H162.772C162.791 58.416 162.869 58.1602 163.006 57.9375C163.143 57.7148 163.317 57.5293 163.528 57.3809C163.738 57.2285 163.977 57.1133 164.242 57.0352C164.512 56.957 164.787 56.918 165.069 56.918C165.373 56.918 165.66 56.9551 165.93 57.0293C166.203 57.1035 166.444 57.2168 166.651 57.3691C166.858 57.5215 167.022 57.7148 167.143 57.9492C167.264 58.1797 167.324 58.4512 167.324 58.7637V61.8516C167.324 62.0039 167.362 62.127 167.436 62.2207C167.514 62.3105 167.61 62.3555 167.723 62.3555C167.774 62.3555 167.822 62.3477 167.869 62.332V63.0469ZM166.457 59.6836C166.336 59.8125 166.178 59.9199 165.983 60.0059C165.791 60.0879 165.584 60.1621 165.362 60.2285C165.143 60.2949 164.922 60.3594 164.699 60.4219C164.477 60.4844 164.274 60.5586 164.09 60.6445C163.91 60.7305 163.764 60.8359 163.651 60.9609C163.537 61.082 163.481 61.2363 163.481 61.4238C163.481 61.5918 163.51 61.7344 163.569 61.8516C163.627 61.9688 163.703 62.0664 163.797 62.1445C163.891 62.2188 163.998 62.2734 164.119 62.3086C164.24 62.3438 164.363 62.3613 164.488 62.3613C164.848 62.3613 165.199 62.252 165.543 62.0332C165.891 61.8145 166.195 61.4785 166.457 61.0254V59.6836ZM169.949 54.7852V57.8555C170.07 57.6758 170.203 57.5273 170.348 57.4102C170.492 57.2891 170.645 57.1934 170.805 57.123C170.969 57.0488 171.141 56.9961 171.32 56.9648C171.5 56.9336 171.684 56.918 171.871 56.918C172.153 56.918 172.41 56.9629 172.645 57.0527C172.879 57.1426 173.08 57.2656 173.248 57.4219C173.42 57.5781 173.553 57.7637 173.647 57.9785C173.744 58.1934 173.793 58.4258 173.793 58.6758V63H172.926V58.8281C172.926 58.625 172.891 58.4512 172.82 58.3066C172.75 58.1621 172.656 58.0449 172.539 57.9551C172.426 57.8613 172.293 57.7949 172.141 57.7559C171.992 57.7129 171.836 57.6914 171.672 57.6914C171.469 57.6914 171.264 57.7344 171.057 57.8203C170.854 57.9023 170.67 58.0176 170.506 58.166C170.342 58.3145 170.207 58.4883 170.102 58.6875C170 58.8867 169.949 59.1016 169.949 59.332V63H169.082V54.7852H169.949ZM178.938 60.4453C178.957 60.7383 179.024 61.0078 179.137 61.2539C179.25 61.4961 179.401 61.707 179.588 61.8867C179.776 62.0664 179.996 62.207 180.25 62.3086C180.508 62.4062 180.789 62.4551 181.094 62.4551C181.367 62.4551 181.629 62.4258 181.879 62.3672C182.129 62.3047 182.35 62.209 182.541 62.0801C182.733 61.9473 182.885 61.7773 182.998 61.5703C183.112 61.3594 183.168 61.1055 183.168 60.8086C183.168 60.5664 183.106 60.3613 182.981 60.1934C182.86 60.0215 182.697 59.875 182.494 59.7539C182.295 59.6289 182.067 59.5215 181.809 59.4316C181.555 59.3418 181.297 59.2578 181.035 59.1797C180.817 59.1172 180.596 59.0488 180.373 58.9746C180.154 58.9004 179.942 58.8164 179.735 58.7227C179.531 58.6289 179.34 58.5215 179.16 58.4004C178.985 58.2793 178.83 58.1367 178.697 57.9727C178.569 57.8086 178.465 57.623 178.387 57.416C178.313 57.2051 178.276 56.9629 178.276 56.6895C178.276 56.3496 178.342 56.0508 178.475 55.793C178.608 55.5312 178.793 55.3125 179.031 55.1367C179.274 54.9609 179.561 54.8281 179.893 54.7383C180.229 54.6445 180.596 54.5977 180.994 54.5977C181.35 54.5977 181.664 54.6328 181.938 54.7031C182.211 54.7734 182.449 54.8691 182.653 54.9902C182.856 55.1113 183.028 55.2539 183.168 55.418C183.309 55.5781 183.424 55.748 183.514 55.9277C183.604 56.1074 183.67 56.293 183.713 56.4844C183.756 56.6758 183.783 56.8594 183.795 57.0352H182.904C182.881 56.7617 182.815 56.5215 182.705 56.3145C182.6 56.1074 182.461 55.9336 182.289 55.793C182.121 55.6523 181.926 55.5469 181.703 55.4766C181.481 55.4062 181.244 55.3711 180.994 55.3711C180.764 55.3711 180.537 55.3945 180.315 55.4414C180.096 55.4883 179.899 55.5645 179.723 55.6699C179.551 55.7715 179.41 55.9062 179.301 56.0742C179.195 56.2422 179.143 56.4473 179.143 56.6895C179.143 56.9395 179.203 57.1523 179.324 57.3281C179.445 57.5 179.608 57.6484 179.811 57.7734C180.014 57.8984 180.244 58.0059 180.502 58.0957C180.764 58.1855 181.033 58.2734 181.311 58.3594C181.533 58.4258 181.754 58.4961 181.973 58.5703C182.192 58.6445 182.403 58.7285 182.606 58.8223C182.809 58.916 182.996 59.0234 183.168 59.1445C183.344 59.2617 183.496 59.4004 183.625 59.5605C183.754 59.7168 183.854 59.8984 183.924 60.1055C183.998 60.3086 184.035 60.543 184.035 60.8086C184.035 61.207 183.961 61.5586 183.813 61.8633C183.668 62.1641 183.465 62.416 183.203 62.6191C182.942 62.8223 182.631 62.9746 182.272 63.0762C181.912 63.1816 181.52 63.2344 181.094 63.2344C180.711 63.2344 180.338 63.168 179.975 63.0352C179.612 62.9062 179.287 62.7227 179.002 62.4844C178.721 62.2422 178.492 61.9492 178.317 61.6055C178.145 61.2617 178.053 60.875 178.041 60.4453H178.938ZM186.121 60.1641C186.125 60.4375 186.172 60.707 186.262 60.9727C186.356 61.2344 186.481 61.4688 186.637 61.6758C186.797 61.8789 186.985 62.0449 187.199 62.1738C187.414 62.2988 187.647 62.3613 187.897 62.3613C188.74 62.3613 189.301 61.9688 189.578 61.1836H190.369C190.303 61.4883 190.192 61.7617 190.035 62.0039C189.879 62.2422 189.69 62.4453 189.467 62.6133C189.244 62.7773 188.998 62.9023 188.729 62.9883C188.459 63.0742 188.182 63.1172 187.897 63.1172C187.487 63.1172 187.115 63.0293 186.783 62.8535C186.455 62.6777 186.174 62.4434 185.94 62.1504C185.705 61.8574 185.526 61.5195 185.401 61.1367C185.276 60.75 185.213 60.3457 185.213 59.9238C185.213 59.5293 185.276 59.1504 185.401 58.7871C185.526 58.4238 185.703 58.1035 185.934 57.8262C186.168 57.5488 186.449 57.3281 186.778 57.1641C187.11 57 187.481 56.918 187.891 56.918C188.289 56.918 188.647 56.9922 188.963 57.1406C189.283 57.2891 189.557 57.4941 189.783 57.7559C190.01 58.0176 190.184 58.3242 190.305 58.6758C190.426 59.0273 190.487 59.4082 190.487 59.8184V60.1641H186.121ZM189.59 59.4961C189.582 59.2461 189.535 59.0117 189.449 58.793C189.367 58.5742 189.25 58.3828 189.098 58.2188C188.949 58.0547 188.768 57.9258 188.553 57.832C188.338 57.7383 188.098 57.6914 187.832 57.6914C187.59 57.6914 187.365 57.7422 187.158 57.8438C186.951 57.9453 186.772 58.0801 186.619 58.248C186.467 58.416 186.346 58.6094 186.256 58.8281C186.17 59.043 186.125 59.2656 186.121 59.4961H189.59ZM195.52 59.918C195.512 59.6133 195.471 59.3262 195.397 59.0566C195.322 58.7871 195.217 58.5527 195.08 58.3535C194.944 58.1504 194.778 57.9902 194.582 57.873C194.387 57.752 194.164 57.6914 193.914 57.6914C193.66 57.6914 193.432 57.7539 193.229 57.8789C193.029 58 192.862 58.166 192.725 58.377C192.588 58.5879 192.483 58.834 192.408 59.1152C192.338 59.3965 192.303 59.6953 192.303 60.0117C192.303 60.3281 192.338 60.627 192.408 60.9082C192.483 61.1895 192.588 61.4375 192.725 61.6523C192.862 61.8672 193.029 62.0371 193.229 62.1621C193.432 62.2871 193.66 62.3496 193.914 62.3496C194.168 62.3496 194.395 62.291 194.594 62.1738C194.793 62.0527 194.961 61.8887 195.098 61.6816C195.235 61.4746 195.338 61.2344 195.408 60.9609C195.483 60.6836 195.52 60.3867 195.52 60.0703V59.918ZM196.387 63H195.52V62.1035C195.317 62.4395 195.069 62.6934 194.776 62.8652C194.483 63.0332 194.184 63.1172 193.879 63.1172C193.481 63.1172 193.129 63.0352 192.824 62.8711C192.52 62.707 192.264 62.4844 192.057 62.2031C191.854 61.918 191.699 61.5879 191.594 61.2129C191.488 60.834 191.436 60.4336 191.436 60.0117C191.436 59.5898 191.487 59.1914 191.588 58.8164C191.69 58.4414 191.842 58.1133 192.045 57.832C192.248 57.5508 192.5 57.3281 192.801 57.1641C193.106 57 193.457 56.918 193.856 56.918C194.137 56.918 194.416 56.9902 194.694 57.1348C194.975 57.2754 195.25 57.5234 195.52 57.8789V54.7852H196.387V63ZM202.85 63H201.983V61.9336C201.83 62.1328 201.67 62.3008 201.502 62.4375C201.338 62.5742 201.168 62.6855 200.992 62.7715C200.817 62.8535 200.637 62.9121 200.453 62.9473C200.274 62.9824 200.09 63 199.903 63C199.629 63 199.383 62.959 199.164 62.877C198.949 62.7949 198.766 62.6777 198.613 62.5254C198.461 62.373 198.344 62.1895 198.262 61.9746C198.184 61.7559 198.145 61.5117 198.145 61.2422V57.0352H199.012V61.1309C199.012 61.334 199.035 61.5059 199.082 61.6465C199.133 61.7871 199.203 61.9023 199.293 61.9922C199.387 62.0781 199.5 62.1406 199.633 62.1797C199.766 62.2188 199.916 62.2383 200.084 62.2383C200.346 62.2383 200.592 62.1875 200.822 62.0859C201.053 61.9805 201.254 61.8477 201.426 61.6875C201.598 61.5234 201.733 61.3418 201.83 61.1426C201.932 60.9434 201.983 60.748 201.983 60.5566V57.0352H202.85V63ZM205.481 54.7852V57.8555C205.602 57.6758 205.735 57.5273 205.879 57.4102C206.024 57.2891 206.176 57.1934 206.336 57.123C206.5 57.0488 206.672 56.9961 206.852 56.9648C207.031 56.9336 207.215 56.918 207.403 56.918C207.684 56.918 207.942 56.9629 208.176 57.0527C208.41 57.1426 208.612 57.2656 208.779 57.4219C208.951 57.5781 209.084 57.7637 209.178 57.9785C209.276 58.1934 209.324 58.4258 209.324 58.6758V63H208.457V58.8281C208.457 58.625 208.422 58.4512 208.352 58.3066C208.281 58.1621 208.188 58.0449 208.07 57.9551C207.957 57.8613 207.824 57.7949 207.672 57.7559C207.524 57.7129 207.367 57.6914 207.203 57.6914C207 57.6914 206.795 57.7344 206.588 57.8203C206.385 57.9023 206.201 58.0176 206.037 58.166C205.873 58.3145 205.738 58.4883 205.633 58.6875C205.531 58.8867 205.481 59.1016 205.481 59.332V63H204.613V54.7852H205.481ZM219.701 54.8262V55.6172H216.994V63H216.127V55.6172H213.426V54.8262H219.701ZM220.715 60.1641C220.719 60.4375 220.766 60.707 220.856 60.9727C220.949 61.2344 221.074 61.4688 221.231 61.6758C221.391 61.8789 221.578 62.0449 221.793 62.1738C222.008 62.2988 222.24 62.3613 222.49 62.3613C223.334 62.3613 223.895 61.9688 224.172 61.1836H224.963C224.897 61.4883 224.785 61.7617 224.629 62.0039C224.473 62.2422 224.283 62.4453 224.061 62.6133C223.838 62.7773 223.592 62.9023 223.322 62.9883C223.053 63.0742 222.776 63.1172 222.49 63.1172C222.08 63.1172 221.709 63.0293 221.377 62.8535C221.049 62.6777 220.768 62.4434 220.533 62.1504C220.299 61.8574 220.119 61.5195 219.994 61.1367C219.869 60.75 219.807 60.3457 219.807 59.9238C219.807 59.5293 219.869 59.1504 219.994 58.7871C220.119 58.4238 220.297 58.1035 220.528 57.8262C220.762 57.5488 221.043 57.3281 221.371 57.1641C221.703 57 222.074 56.918 222.485 56.918C222.883 56.918 223.24 56.9922 223.557 57.1406C223.877 57.2891 224.151 57.4941 224.377 57.7559C224.604 58.0176 224.778 58.3242 224.899 58.6758C225.02 59.0273 225.08 59.4082 225.08 59.8184V60.1641H220.715ZM224.184 59.4961C224.176 59.2461 224.129 59.0117 224.043 58.793C223.961 58.5742 223.844 58.3828 223.692 58.2188C223.543 58.0547 223.362 57.9258 223.147 57.832C222.932 57.7383 222.692 57.6914 222.426 57.6914C222.184 57.6914 221.959 57.7422 221.752 57.8438C221.545 57.9453 221.365 58.0801 221.213 58.248C221.061 58.416 220.94 58.6094 220.85 58.8281C220.764 59.043 220.719 59.2656 220.715 59.4961H224.184ZM227.301 54.7852V57.8555C227.422 57.6758 227.555 57.5273 227.699 57.4102C227.844 57.2891 227.996 57.1934 228.156 57.123C228.32 57.0488 228.492 56.9961 228.672 56.9648C228.852 56.9336 229.035 56.918 229.223 56.918C229.504 56.918 229.762 56.9629 229.996 57.0527C230.231 57.1426 230.432 57.2656 230.6 57.4219C230.772 57.5781 230.904 57.7637 230.998 57.9785C231.096 58.1934 231.145 58.4258 231.145 58.6758V63H230.278V58.8281C230.278 58.625 230.242 58.4512 230.172 58.3066C230.102 58.1621 230.008 58.0449 229.891 57.9551C229.778 57.8613 229.645 57.7949 229.492 57.7559C229.344 57.7129 229.188 57.6914 229.024 57.6914C228.82 57.6914 228.615 57.7344 228.408 57.8203C228.205 57.9023 228.022 58.0176 227.858 58.166C227.694 58.3145 227.559 58.4883 227.453 58.6875C227.352 58.8867 227.301 59.1016 227.301 59.332V63H226.434V54.7852H227.301ZM233.84 61.8633V63H232.733V61.8633H233.84Z" fill="#535353"/>
</svg>
